<svg width="25" height="25" viewBox="0 0 25 25" fill="none" xmlns="http://www.w3.org/2000/svg">
<path d="M3.55469 11.5111C3.14047 11.5111 2.80469 11.8469 2.80469 12.2611C2.80469 12.6753 3.14047 13.0111 3.55469 13.0111V11.5111ZM21.5547 13.0111C21.9689 13.0111 22.3047 12.6753 22.3047 12.2611C22.3047 11.8469 21.9689 11.5111 21.5547 11.5111V13.0111ZM5.28683 12.0984C5.19697 11.694 4.79634 11.4391 4.39199 11.5289C3.98764 11.6188 3.73269 12.0194 3.82255 12.4238L5.28683 12.0984ZM5.99784 18.7552L6.72998 18.5926L5.99784 18.7552ZM19.1115 18.7552L19.8437 18.9179V18.9179L19.1115 18.7552ZM21.2868 12.4238C21.3767 12.0194 21.1217 11.6188 20.7174 11.5289C20.313 11.4391 19.9124 11.694 19.8225 12.0984L21.2868 12.4238ZM17.7396 21.0988L17.4436 20.4096L17.7396 21.0988ZM18.5731 20.4301L17.9646 19.9917L18.5731 20.4301ZM6.53629 20.4301L5.92777 20.8685L5.92777 20.8685L6.53629 20.4301ZM7.36982 21.0988L7.07387 21.7879H7.07387L7.36982 21.0988ZM5.55469 15.5111C5.14047 15.5111 4.80469 15.8469 4.80469 16.2611C4.80469 16.6753 5.14047 17.0111 5.55469 17.0111V15.5111ZM19.5547 17.0111C19.9689 17.0111 20.3047 16.6753 20.3047 16.2611C20.3047 15.8469 19.9689 15.5111 19.5547 15.5111V17.0111ZM6.81048 12.168C6.7591 12.5791 7.05065 12.9539 7.46166 13.0053C7.87268 13.0567 8.24752 12.7651 8.2989 12.3541L6.81048 12.168ZM5.87181 7.28037L6.41126 6.75932V6.75932L5.87181 7.28037ZM6.22254 6.30088L6.29931 5.55482L6.22254 6.30088ZM11.8047 12.2611C11.8047 12.6753 12.1405 13.0111 12.5547 13.0111C12.9689 13.0111 13.3047 12.6753 13.3047 12.2611H11.8047ZM19.2225 3.99725L18.5296 3.71012V3.71012L19.2225 3.99725ZM16.8047 12.2611C16.8047 12.6753 17.1405 13.0111 17.5547 13.0111C17.9689 13.0111 18.3047 12.6753 18.3047 12.2611H16.8047ZM10.3633 6.87813C10.1518 7.23428 10.2691 7.69445 10.6252 7.90594C10.9814 8.11743 11.4416 8.00016 11.6531 7.64401L10.3633 6.87813ZM18.7449 3.28195L18.7057 2.53297L18.7449 3.28195ZM3.55469 13.0111H21.5547V11.5111H3.55469V13.0111ZM3.82255 12.4238L5.2657 18.9179L6.72998 18.5926L5.28683 12.0984L3.82255 12.4238ZM9.12164 22.0111H15.9877V20.5111H9.12164V22.0111ZM19.8437 18.9179L21.2868 12.4238L19.8225 12.0984L18.3794 18.5926L19.8437 18.9179ZM15.9877 22.0111C16.4348 22.0111 16.8103 22.0115 17.1203 21.9888C17.4398 21.9653 17.7404 21.9146 18.0355 21.7879L17.4436 20.4096C17.3608 20.4452 17.2435 20.4757 17.0105 20.4928C16.768 20.5106 16.4566 20.5111 15.9877 20.5111V22.0111ZM18.3794 18.5926C18.2777 19.0502 18.2097 19.3542 18.1397 19.587C18.0725 19.8107 18.0172 19.9186 17.9646 19.9917L19.1816 20.8685C19.3693 20.608 19.484 20.3255 19.5762 20.0187C19.6657 19.721 19.7467 19.3544 19.8437 18.9179L18.3794 18.5926ZM18.0355 21.7879C18.4939 21.5911 18.89 21.2733 19.1816 20.8685L17.9646 19.9917C17.832 20.1757 17.6519 20.3202 17.4436 20.4096L18.0355 21.7879ZM5.2657 18.9179C5.36268 19.3544 5.44368 19.721 5.53316 20.0187C5.62537 20.3255 5.74003 20.608 5.92777 20.8685L7.14482 19.9917C7.09214 19.9186 7.03692 19.8107 6.96968 19.587C6.89971 19.3542 6.83169 19.0503 6.72998 18.5926L5.2657 18.9179ZM9.12164 20.5111C8.65277 20.5111 8.34133 20.5106 8.09891 20.4928C7.86592 20.4757 7.74858 20.4452 7.66577 20.4096L7.07387 21.7879C7.36898 21.9146 7.66958 21.9653 7.98904 21.9888C8.29906 22.0115 8.67457 22.0111 9.12164 22.0111V20.5111ZM5.92777 20.8685C6.21935 21.2733 6.61552 21.5911 7.07387 21.7879L7.66577 20.4096C7.45744 20.3202 7.27736 20.1757 7.14482 19.9917L5.92777 20.8685ZM5.55469 17.0111H19.5547V15.5111H5.55469V17.0111ZM8.2989 12.3541C8.45341 11.1179 8.21541 8.62721 6.41126 6.75932L5.33235 7.80141C6.72896 9.24736 6.92757 11.2313 6.81048 12.168L8.2989 12.3541ZM6.14577 7.04694C7.44888 7.18103 8.88436 7.58 9.97522 8.39281C11.0318 9.18006 11.8047 10.3802 11.8047 12.2611H13.3047C13.3047 9.88584 12.2911 8.24782 10.8714 7.18999C9.48604 6.15772 7.75545 5.70466 6.29931 5.55482L6.14577 7.04694ZM6.41126 6.75932C6.45754 6.80723 6.45186 6.85196 6.444 6.87548C6.43775 6.89416 6.41694 6.94074 6.35781 6.98461C6.28946 7.03532 6.20764 7.0533 6.14577 7.04694L6.29931 5.55482C5.62316 5.48524 5.17412 5.94305 5.02139 6.39988C4.87539 6.8366 4.94123 7.39647 5.33235 7.80141L6.41126 6.75932ZM18.5296 3.71012C17.8057 5.45694 16.8047 8.72424 16.8047 12.2611H18.3047C18.3047 8.9783 19.2415 5.91046 19.9153 4.28438L18.5296 3.71012ZM11.6531 7.64401C12.4949 6.22629 14.6103 4.24953 18.7842 4.03092L18.7057 2.53297C14.0308 2.77783 11.4611 5.02951 10.3633 6.87813L11.6531 7.64401ZM19.9153 4.28438C20.2438 3.49171 19.6913 2.48135 18.7057 2.53297L18.7842 4.03092C18.6768 4.03654 18.5895 3.97642 18.5492 3.91502C18.512 3.85832 18.5001 3.7814 18.5296 3.71012L19.9153 4.28438Z" fill="black"/>
</svg>
