<svg width="25" height="25" viewBox="0 0 25 25" fill="none" xmlns="http://www.w3.org/2000/svg">
<path d="M20.5093 18.7896C21.8729 17.426 22.5547 16.7442 22.5547 15.897C22.5547 15.0498 21.8729 14.368 20.5093 13.0044L11.8315 4.32662C10.468 2.96304 9.78617 2.28125 8.93895 2.28125C8.09173 2.28125 7.40994 2.96304 6.04635 4.32662L4.60006 5.77292C3.23648 7.1365 2.55469 7.81829 2.55469 8.66551C2.55469 9.51273 3.23648 10.1945 4.60006 11.5581L13.2778 20.2359C14.6414 21.5995 15.3232 22.2812 16.1704 22.2812C17.0176 22.2812 17.6994 21.5995 19.063 20.2359L20.5093 18.7896Z" stroke="black" stroke-width="1.5"/>
<path d="M16.0898 8.74561L14.6756 10.1598" stroke="black" stroke-width="1.5" stroke-linecap="round"/>
<path d="M11.8477 4.50293L10.4334 5.91714" stroke="black" stroke-width="1.5" stroke-linecap="round"/>
<path d="M20.332 12.9883L18.9178 14.4025" stroke="black" stroke-width="1.5" stroke-linecap="round"/>
<path d="M18.2109 10.8672L16.0896 12.9885" stroke="black" stroke-width="1.5" stroke-linecap="round"/>
<path d="M13.9688 6.62451L11.8474 8.74583" stroke="black" stroke-width="1.5" stroke-linecap="round"/>
</svg>
