<svg width="25" height="25" viewBox="0 0 25 25" fill="none" xmlns="http://www.w3.org/2000/svg">
<path d="M11.5547 10.1646C11.5547 7.12698 14.0171 4.66455 17.0547 4.66455C20.0923 4.66455 22.5547 7.12698 22.5547 10.1646C22.5547 13.2021 20.0923 15.6646 17.0547 15.6646C14.0171 15.6646 11.5547 13.2021 11.5547 10.1646Z" stroke="black" stroke-width="1.5"/>
<path d="M17.0547 19.6646V15.6646M17.0547 19.6646H20.0547M17.0547 19.6646H14.0547" stroke="black" stroke-width="1.5" stroke-linecap="round" stroke-linejoin="round"/>
<path d="M2.55469 10.6646V9.91455C2.14047 9.91455 1.80469 10.2503 1.80469 10.6646H2.55469ZM8.55469 10.6646H9.30469C9.30469 10.2503 8.9689 9.91455 8.55469 9.91455V10.6646ZM2.55469 11.4146H8.55469V9.91455H2.55469V11.4146ZM7.80469 10.6646V16.6646H9.30469V10.6646H7.80469ZM3.30469 16.6646V10.6646H1.80469V16.6646H3.30469ZM5.55469 18.9146C4.31205 18.9146 3.30469 17.9072 3.30469 16.6646H1.80469C1.80469 18.7356 3.48362 20.4146 5.55469 20.4146V18.9146ZM7.80469 16.6646C7.80469 17.9072 6.79733 18.9146 5.55469 18.9146V20.4146C7.62576 20.4146 9.30469 18.7356 9.30469 16.6646H7.80469Z" fill="black"/>
<path d="M3.55469 10.6645H7.55469V5.28254C7.55469 4.53916 6.77238 4.05566 6.10747 4.38811L4.10747 5.38811C3.76869 5.55751 3.55469 5.90377 3.55469 6.28254V10.6645Z" stroke="black" stroke-width="1.5"/>
</svg>
