<svg width="25" height="25" viewBox="0 0 25 25" fill="none" xmlns="http://www.w3.org/2000/svg">
<path d="M16.5547 15.2812C16.2214 15.9479 14.9547 17.2812 12.5547 17.2812C10.1547 17.2812 8.88802 15.9479 8.55469 15.2812M16.2423 9.59372H15.8673M16.2423 9.96872H15.8673M9.24231 9.59372H8.86731M9.24231 9.96872H8.86731M2.55469 12.2812C2.55469 17.8041 7.03184 22.2812 12.5547 22.2812C18.0775 22.2812 22.5547 17.8041 22.5547 12.2812C22.5547 6.7584 18.0775 2.28125 12.5547 2.28125C7.03184 2.28125 2.55469 6.7584 2.55469 12.2812ZM15.5547 9.78125C15.5547 10.0574 15.7785 10.2812 16.0547 10.2812C16.3308 10.2812 16.5547 10.0574 16.5547 9.78125C16.5547 9.50511 16.3308 9.28125 16.0547 9.28125C15.7785 9.28125 15.5547 9.50511 15.5547 9.78125ZM8.55469 9.78125C8.55469 10.0574 8.77855 10.2812 9.05469 10.2812C9.33083 10.2812 9.55469 10.0574 9.55469 9.78125C9.55469 9.50511 9.33083 9.28125 9.05469 9.28125C8.77855 9.28125 8.55469 9.50511 8.55469 9.78125Z" stroke="black" stroke-width="1.5" stroke-linecap="round"/>
</svg>
