<svg width="25" height="25" viewBox="0 0 25 25" fill="none" xmlns="http://www.w3.org/2000/svg">
<path d="M18.5547 11.2812H20.5547C21.6593 11.2812 22.5547 12.1767 22.5547 13.2812V14.2812C22.5547 15.3858 21.6593 16.2812 20.5547 16.2812M18.5547 11.2812L17.0105 6.64879C16.7383 5.83211 15.974 5.28125 15.1132 5.28125H10.5547M18.5547 11.2812H10.5547M4.55469 11.2812L6.09884 6.64879C6.37107 5.83211 7.13534 5.28125 7.99621 5.28125H10.5547M4.55469 11.2812H10.5547M4.55469 11.2812C3.45012 11.2812 2.55469 12.1767 2.55469 13.2812V14.2812C2.55469 15.3858 3.45012 16.2812 4.55469 16.2812M10.5547 11.2812V5.28125M8.55469 16.2812H16.5547M8.55469 16.2812C8.55469 17.3858 7.65926 18.2812 6.55469 18.2812C5.45012 18.2812 4.55469 17.3858 4.55469 16.2812M8.55469 16.2812C8.55469 15.1767 7.65926 14.2812 6.55469 14.2812C5.45012 14.2812 4.55469 15.1767 4.55469 16.2812M16.5547 16.2812C16.5547 17.3858 17.4501 18.2812 18.5547 18.2812C19.6593 18.2812 20.5547 17.3858 20.5547 16.2812M16.5547 16.2812C16.5547 15.1767 17.4501 14.2812 18.5547 14.2812C19.6593 14.2812 20.5547 15.1767 20.5547 16.2812" stroke="black" stroke-width="1.5"/>
</svg>
