<svg width="25" height="25" viewBox="0 0 25 25" fill="none" xmlns="http://www.w3.org/2000/svg">
<path d="M12.5588 18.9639L13.1353 18.4842L12.5588 17.7913L11.9823 18.4842L12.5588 18.9639ZM17.2619 19.4732L16.7669 18.9097L17.2619 19.4732ZM17.7962 14.3845L17.1979 14.8367H17.1979L17.7962 14.3845ZM7.32143 14.3845L7.91971 14.8367H7.91971L7.32143 14.3845ZM7.85572 19.4732L7.36853 20.0435L7.85572 19.4732ZM14.3641 11.085L14.0933 11.7844H14.0933L14.3641 11.085ZM10.7535 11.085L11.0243 11.7844H11.0243L10.7535 11.085ZM5.17944 9.15619C4.76523 9.15619 4.42944 9.49198 4.42944 9.90619C4.42944 10.3204 4.76523 10.6562 5.17944 10.6562V9.15619ZM5.92944 10.6562C6.34366 10.6562 6.67944 10.3204 6.67944 9.90619C6.67944 9.49198 6.34366 9.15619 5.92944 9.15619V10.6562ZM5.17944 9.90619C4.76523 9.90619 4.42944 10.242 4.42944 10.6562C4.42944 11.0704 4.76523 11.4062 5.17944 11.4062V9.90619ZM5.92944 11.4062C6.34366 11.4062 6.67944 11.0704 6.67944 10.6562C6.67944 10.242 6.34366 9.90619 5.92944 9.90619V11.4062ZM9.17944 6.15619C8.76523 6.15619 8.42944 6.49198 8.42944 6.90619C8.42944 7.3204 8.76523 7.65619 9.17944 7.65619V6.15619ZM9.92944 7.65619C10.3437 7.65619 10.6794 7.3204 10.6794 6.90619C10.6794 6.49198 10.3437 6.15619 9.92944 6.15619V7.65619ZM9.17944 6.90619C8.76523 6.90619 8.42944 7.24198 8.42944 7.65619C8.42944 8.0704 8.76523 8.40619 9.17944 8.40619V6.90619ZM9.92944 8.40619C10.3437 8.40619 10.6794 8.0704 10.6794 7.65619C10.6794 7.24198 10.3437 6.90619 9.92944 6.90619V8.40619ZM14.1794 5.15619C13.7652 5.15619 13.4294 5.49198 13.4294 5.90619C13.4294 6.3204 13.7652 6.65619 14.1794 6.65619V5.15619ZM14.9294 6.65619C15.3437 6.65619 15.6794 6.3204 15.6794 5.90619C15.6794 5.49198 15.3437 5.15619 14.9294 5.15619V6.65619ZM14.1794 5.90619C13.7652 5.90619 13.4294 6.24198 13.4294 6.65619C13.4294 7.0704 13.7652 7.40619 14.1794 7.40619V5.90619ZM14.9294 7.40619C15.3437 7.40619 15.6794 7.0704 15.6794 6.65619C15.6794 6.24198 15.3437 5.90619 14.9294 5.90619V7.40619ZM19.1794 9.15619C18.7652 9.15619 18.4294 9.49198 18.4294 9.90619C18.4294 10.3204 18.7652 10.6562 19.1794 10.6562V9.15619ZM19.9294 10.6562C20.3437 10.6562 20.6794 10.3204 20.6794 9.90619C20.6794 9.49198 20.3437 9.15619 19.9294 9.15619V10.6562ZM19.1794 9.90619C18.7652 9.90619 18.4294 10.242 18.4294 10.6562C18.4294 11.0704 18.7652 11.4062 19.1794 11.4062V9.90619ZM19.9294 11.4062C20.3437 11.4062 20.6794 11.0704 20.6794 10.6562C20.6794 10.242 20.3437 9.90619 19.9294 9.90619V11.4062ZM11.9823 19.4436C13.4001 21.1475 15.879 21.686 17.7568 20.0367L16.7669 18.9097C15.6386 19.9008 14.1167 19.6636 13.1353 18.4842L11.9823 19.4436ZM17.7568 20.0367C19.5545 18.4578 19.8121 15.8075 18.3945 13.9322L17.1979 14.8367C18.1409 16.0842 17.9753 17.8484 16.7669 18.9097L17.7568 20.0367ZM6.72314 13.9322C5.31186 15.799 5.52755 18.4705 7.36853 20.0435L8.34292 18.903C7.12617 17.8634 6.97032 16.0926 7.91971 14.8367L6.72314 13.9322ZM7.36853 20.0435C9.26452 21.6634 11.7117 21.1545 13.1353 19.4436L11.9823 18.4842C11.0066 19.6567 9.50466 19.8956 8.34292 18.903L7.36853 20.0435ZM18.3945 13.9322C17.0249 12.1205 16.1974 10.9906 14.6348 10.3856L14.0933 11.7844C15.1825 12.2061 15.7592 12.9336 17.1979 14.8367L18.3945 13.9322ZM7.91971 14.8367C9.35842 12.9336 9.93514 12.2061 11.0243 11.7844L10.4828 10.3856C8.92016 10.9906 8.09273 12.1205 6.72314 13.9322L7.91971 14.8367ZM14.6348 10.3856C14.0513 10.1596 13.2764 10.0664 12.5588 10.0664C11.8412 10.0664 11.0663 10.1596 10.4828 10.3856L11.0243 11.7844C11.3658 11.6522 11.9337 11.5664 12.5588 11.5664C13.1839 11.5664 13.7518 11.6522 14.0933 11.7844L14.6348 10.3856ZM5.80469 10.2812C5.80469 10.4193 5.69276 10.5312 5.55469 10.5312V12.0312C6.52119 12.0312 7.30469 11.2477 7.30469 10.2812H5.80469ZM5.55469 10.5312C5.41662 10.5312 5.30469 10.4193 5.30469 10.2812H3.80469C3.80469 11.2477 4.58819 12.0312 5.55469 12.0312V10.5312ZM5.30469 10.2812C5.30469 10.1432 5.41662 10.0312 5.55469 10.0312V8.53125C4.58819 8.53125 3.80469 9.31475 3.80469 10.2812H5.30469ZM5.55469 10.0312C5.69276 10.0312 5.80469 10.1432 5.80469 10.2812H7.30469C7.30469 9.31475 6.52119 8.53125 5.55469 8.53125V10.0312ZM5.17944 10.6562H5.92944V9.15619H5.17944V10.6562ZM5.17944 11.4062H5.92944V9.90619H5.17944V11.4062ZM9.80469 7.28125C9.80469 7.41932 9.69276 7.53125 9.55469 7.53125V9.03125C10.5212 9.03125 11.3047 8.24775 11.3047 7.28125H9.80469ZM9.55469 7.53125C9.41662 7.53125 9.30469 7.41932 9.30469 7.28125H7.80469C7.80469 8.24775 8.58819 9.03125 9.55469 9.03125V7.53125ZM9.30469 7.28125C9.30469 7.14318 9.41662 7.03125 9.55469 7.03125V5.53125C8.58819 5.53125 7.80469 6.31475 7.80469 7.28125H9.30469ZM9.55469 7.03125C9.69276 7.03125 9.80469 7.14318 9.80469 7.28125H11.3047C11.3047 6.31475 10.5212 5.53125 9.55469 5.53125V7.03125ZM9.17944 7.65619H9.92944V6.15619H9.17944V7.65619ZM9.17944 8.40619H9.92944V6.90619H9.17944V8.40619ZM14.8047 6.28125C14.8047 6.41932 14.6928 6.53125 14.5547 6.53125V8.03125C15.5212 8.03125 16.3047 7.24775 16.3047 6.28125H14.8047ZM14.5547 6.53125C14.4166 6.53125 14.3047 6.41932 14.3047 6.28125H12.8047C12.8047 7.24775 13.5882 8.03125 14.5547 8.03125V6.53125ZM14.3047 6.28125C14.3047 6.14318 14.4166 6.03125 14.5547 6.03125V4.53125C13.5882 4.53125 12.8047 5.31475 12.8047 6.28125H14.3047ZM14.5547 6.03125C14.6928 6.03125 14.8047 6.14318 14.8047 6.28125H16.3047C16.3047 5.31475 15.5212 4.53125 14.5547 4.53125V6.03125ZM14.1794 6.65619H14.9294V5.15619H14.1794V6.65619ZM14.1794 7.40619H14.9294V5.90619H14.1794V7.40619ZM19.8047 10.2812C19.8047 10.4193 19.6928 10.5312 19.5547 10.5312V12.0312C20.5212 12.0312 21.3047 11.2477 21.3047 10.2812H19.8047ZM19.5547 10.5312C19.4166 10.5312 19.3047 10.4193 19.3047 10.2812H17.8047C17.8047 11.2477 18.5882 12.0312 19.5547 12.0312V10.5312ZM19.3047 10.2812C19.3047 10.1432 19.4166 10.0312 19.5547 10.0312V8.53125C18.5882 8.53125 17.8047 9.31475 17.8047 10.2812H19.3047ZM19.5547 10.0312C19.6928 10.0312 19.8047 10.1432 19.8047 10.2812H21.3047C21.3047 9.31475 20.5212 8.53125 19.5547 8.53125V10.0312ZM19.1794 10.6562H19.9294V9.15619H19.1794V10.6562ZM19.1794 11.4062H19.9294V9.90619H19.1794V11.4062Z" fill="black"/>
</svg>
