<svg width="25" height="25" viewBox="0 0 25 25" fill="none" xmlns="http://www.w3.org/2000/svg">
<path d="M8.87305 12.4795L12.7531 8.59948M15.8571 11.7035L11.9771 15.5835" stroke="black" stroke-width="1.5"/>
<path d="M3.98625 15.9005C3.08206 14.9964 2.62997 14.5443 2.56548 13.9922C2.55109 13.8689 2.55109 13.7444 2.56548 13.6212C2.62997 13.0691 3.08206 12.617 3.98625 11.7128C4.89044 10.8086 5.34254 10.3565 5.89463 10.292C6.01787 10.2777 6.14237 10.2777 6.26561 10.292C6.8177 10.3565 7.26979 10.8086 8.17398 11.7128L13.1231 16.662C14.0273 17.5661 14.4794 18.0182 14.5439 18.5703C14.5583 18.6936 14.5583 18.8181 14.5439 18.9413C14.4794 19.4934 14.0273 19.9455 13.1231 20.8497C12.2189 21.7539 11.7668 22.206 11.2147 22.2705C11.0915 22.2848 10.967 22.2848 10.8438 22.2705C10.2917 22.206 9.83958 21.7539 8.93539 20.8497L3.98625 15.9005Z" stroke="black" stroke-width="1.5"/>
<path d="M11.9863 7.90055C11.0821 6.99636 10.63 6.54426 10.5655 5.99217C10.5511 5.86893 10.5511 5.74443 10.5655 5.62119C10.63 5.0691 11.0821 4.61701 11.9863 3.71281C12.8904 2.80862 13.3425 2.35653 13.8946 2.29205C14.0179 2.27765 14.1424 2.27765 14.2656 2.29205C14.8177 2.35653 15.2698 2.80862 16.174 3.71281L21.1231 8.66195C22.0273 9.56614 22.4794 10.0182 22.5439 10.5703C22.5583 10.6936 22.5583 10.8181 22.5439 10.9413C22.4794 11.4934 22.0273 11.9455 21.1231 12.8497C20.2189 13.7539 19.7668 14.206 19.2147 14.2705C19.0915 14.2848 18.967 14.2848 18.8438 14.2705C18.2917 14.206 17.8396 13.7539 16.9354 12.8497L11.9863 7.90055Z" stroke="black" stroke-width="1.5"/>
<path d="M18.5742 2.7793L21.6782 5.88331" stroke="black" stroke-width="1.5" stroke-linecap="round" stroke-linejoin="round"/>
<path d="M3.05273 18.2993L6.15674 21.4033" stroke="black" stroke-width="1.5" stroke-linecap="round" stroke-linejoin="round"/>
</svg>
