<svg width="340" height="340" viewBox="0 0 340 340" fill="none" xmlns="http://www.w3.org/2000/svg">
<path d="M177.844 136.75C174.121 138.997 169.908 140.307 165.567 140.568C166.581 143.44 167.334 146.398 167.817 149.406L175.273 152.684L179.805 146.096C179.397 142.934 178.742 139.809 177.844 136.75Z" fill="#F6EADA"/>
<path d="M225.699 80.1543C206.994 103.487 191.6 112.293 181.315 115.796C184.079 123.123 186.233 128.587 187.236 135.175C187.268 135.24 223.095 121.259 239.687 92.2113C236.255 86.9533 231.406 82.7732 225.699 80.1543Z" fill="#F6EADA"/>
<path d="M173.023 117.853C171.286 118.136 169.504 117.925 167.881 117.242C165.535 119.974 161.518 120.906 156.793 121.067C156.086 122.059 155.177 122.892 154.126 123.509C156.423 127.149 158.512 130.915 160.385 134.79C167.809 134.34 173.433 132.99 177.322 129.519C176.305 125.49 174.864 121.579 173.023 117.853Z" fill="#F6EADA"/>
<path d="M93.32 158.122C112.025 157.415 136.032 154.401 154.158 148.031C151.653 141.015 148.478 134.256 144.677 127.848C130.78 133.083 119.763 133.066 91.4238 135.015C98.0968 134.648 99.538 157.256 93.32 158.122Z" fill="#F6EADA"/>
<path d="M242.669 74.4303L247.65 78.9297C248.124 79.3512 248.745 79.5677 249.377 79.5315C250.01 79.4953 250.602 79.2096 251.025 78.7368L266.323 61.744C266.533 61.5094 266.693 61.2357 266.798 60.9387C266.901 60.6415 266.945 60.3269 266.929 60.0126C266.91 59.6983 266.83 59.3908 266.693 59.1073C266.556 58.824 266.365 58.5704 266.13 58.361L254.689 48.0429C254.454 47.833 254.18 47.6713 253.884 47.5674C253.586 47.4634 253.271 47.4191 252.957 47.437C252.642 47.4549 252.336 47.5346 252.052 47.6718C251.768 47.8088 251.516 48.0004 251.306 48.2357L236.006 65.2387C235.796 65.4733 235.634 65.747 235.531 66.0442C235.426 66.3412 235.382 66.656 235.401 66.9703C235.418 67.2845 235.497 67.5922 235.634 67.8756C235.771 68.159 235.964 68.4126 236.199 68.6217L237.383 69.6822C239.168 67.04 243.141 61.4871 244.425 61.1605C245.328 62.4252 244.354 65.8654 243.481 68.9441C242.749 71.5246 242.091 73.8513 242.669 74.4303Z" fill="#F6EADA"/>
<path d="M240.873 265.113C235.032 266.724 229.065 267.832 223.036 268.424C229.594 277.583 228.403 279.64 230.717 284.011C241.357 288.382 264.85 292.335 276.259 292.56C267.768 282.018 251.191 276.49 240.873 265.113Z" fill="#FFCC85"/>
<path d="M83.0041 218.414C75.8697 218.671 68.7295 218.1 61.7267 216.711C55.0436 231.173 50.2871 249.203 47.875 260.871C64.5244 253.053 64.9422 235.969 81.9114 234.259C81.456 228.952 81.8246 223.607 83.0041 218.414Z" fill="#FFCC85"/>
<path d="M94.7667 137.393C92.5492 137.682 90.428 137.875 88.4033 138.004C89.946 134.31 92.6456 133.987 94.7667 137.393Z" fill="#FFCC85"/>
<path d="M96.2126 155.101C94.5093 159.312 91.4882 159.087 89.335 154.941C92.131 154.946 94.6057 155.005 96.2126 155.101Z" fill="#FFCC85"/>
<path d="M264.813 181.164C264.324 180.097 263.529 179.198 262.528 178.581C261.528 177.965 260.368 177.661 259.194 177.705C258.02 177.747 256.887 178.138 255.934 178.826C254.982 179.515 254.256 180.47 253.847 181.572C253.438 182.673 253.365 183.87 253.637 185.012C253.908 186.156 254.513 187.191 255.373 187.991C256.234 188.789 257.313 189.315 258.472 189.503C259.632 189.689 260.821 189.527 261.888 189.038C262.599 188.715 263.238 188.255 263.771 187.683C264.304 187.111 264.717 186.441 264.989 185.709C265.261 184.978 265.385 184.199 265.354 183.419C265.326 182.639 265.141 181.873 264.813 181.164Z" fill="#FFCC85"/>
<path d="M176.045 181.969C174.374 186.404 172.662 190.647 170.802 194.76C172.047 198.708 173.831 203.411 174.523 205.079C173.346 195.017 176.078 182.01 176.045 181.969Z" fill="#FFCC85"/>
<path d="M163.222 66.301C158.092 66.3063 153.174 68.3464 149.547 71.9736C145.92 75.6007 143.88 80.5188 143.875 85.6484C143.837 88.5524 144.344 91.4377 145.37 94.155C142.851 89.6867 138.858 86.2325 134.074 84.3832C129.29 82.534 124.011 82.4046 119.142 84.0173C114.273 85.63 110.116 88.8844 107.381 93.224C104.646 97.5635 103.505 102.718 104.151 107.807C104.797 112.895 107.192 117.601 110.925 121.119C114.658 124.636 119.497 126.748 124.614 127.092C129.732 127.436 134.81 125.991 138.98 123.004C143.15 120.017 146.153 115.674 147.474 110.718C150.27 112.261 154.03 112.454 156.439 114.157C156.045 113.369 154.472 110.512 153.547 110.397C147.288 110.011 147.505 104.323 151.136 105.351C152.872 105.833 153.29 105.447 152.997 104.58C150.844 99.9179 152.579 88.4817 161.803 98.086C163.803 100.007 165.504 102.218 166.849 104.644C171.58 103.743 175.805 101.109 178.696 97.2573C181.588 93.406 182.94 88.6143 182.485 83.8194C182.032 79.0247 179.804 74.5718 176.242 71.3319C172.678 68.0918 168.033 66.298 163.217 66.301H163.222Z" fill="#FFCC85"/>
<path d="M164.025 112.807C162.9 113.129 161.749 113.355 160.586 113.484L166.017 116.119C164.955 115.31 164.242 114.125 164.025 112.807Z" fill="#FFCC85"/>
<path d="M322.181 129.776C322.534 130.581 323.116 131.262 323.857 131.735C324.596 132.208 325.461 132.45 326.339 132.432C327.216 132.414 328.071 132.136 328.79 131.633C329.51 131.13 330.065 130.425 330.383 129.607C330.703 128.788 330.772 127.894 330.583 127.036C330.393 126.179 329.955 125.396 329.321 124.789C328.686 124.181 327.886 123.774 327.022 123.621C326.158 123.468 325.266 123.574 324.463 123.927C323.928 124.16 323.444 124.497 323.04 124.917C322.636 125.338 322.318 125.834 322.106 126.377C321.893 126.921 321.792 127.501 321.804 128.084C321.817 128.668 321.946 129.243 322.181 129.776Z" fill="#FFCC85"/>
<path d="M297.466 140.671C297.818 141.476 298.401 142.157 299.142 142.63C299.881 143.103 300.746 143.345 301.624 143.327C302.502 143.309 303.356 143.031 304.075 142.528C304.795 142.025 305.35 141.32 305.668 140.502C305.988 139.683 306.057 138.789 305.868 137.931C305.678 137.074 305.24 136.291 304.606 135.684C303.972 135.076 303.171 134.669 302.307 134.516C301.443 134.363 300.551 134.469 299.748 134.822C299.213 135.055 298.73 135.392 298.325 135.812C297.921 136.233 297.603 136.729 297.392 137.272C297.178 137.816 297.077 138.396 297.089 138.979C297.102 139.563 297.231 140.138 297.466 140.671Z" fill="#FFCC85"/>
<path d="M94.3164 249.204L101.805 265.531C103.294 268.772 106.009 271.29 109.353 272.53C112.698 273.772 116.398 273.637 119.642 272.151L191.182 239.368" stroke="#FF9500" stroke-width="2" stroke-linecap="round" stroke-linejoin="round"/>
<path d="M223.803 224.424L285.35 196.239C288.591 194.748 291.109 192.033 292.349 188.689C293.591 185.345 293.455 181.646 291.97 178.402L248.68 83.8823" stroke="#FF9500" stroke-width="2" stroke-linecap="round" stroke-linejoin="round"/>
<path d="M235.437 66.8812C232.445 66.1065 229.278 66.3904 226.472 67.6847L182.512 87.8117" stroke="#FF9500" stroke-width="2" stroke-linecap="round" stroke-linejoin="round"/>
<path d="M77.7979 135.754L110.606 120.732" stroke="#FF9500" stroke-width="2" stroke-linecap="round" stroke-linejoin="round"/>
<path d="M64.1705 141.989L60.7317 143.564C57.4901 145.053 54.9722 147.768 53.7306 151.112C52.4889 154.456 52.6252 158.157 54.1095 161.4L80.2719 218.478" stroke="#FF9500" stroke-width="2" stroke-linecap="round" stroke-linejoin="round"/>
<path d="M202.559 188.776L220.814 180.42C221.525 180.09 222.074 179.493 222.347 178.757C222.617 178.023 222.587 177.211 222.26 176.499L220.493 172.578C220.163 171.868 219.566 171.318 218.83 171.045C218.096 170.775 217.284 170.805 216.572 171.132L197.899 179.681" stroke="#FF9500" stroke-width="2" stroke-linecap="round" stroke-linejoin="round"/>
<path d="M173.377 202.152L165.311 205.848" stroke="#FF9500" stroke-width="2" stroke-linecap="round" stroke-linejoin="round"/>
<path d="M163.993 112.839C164.213 113.847 164.69 114.782 165.377 115.552C166.064 116.323 166.937 116.903 167.914 117.237C169.536 117.922 171.319 118.134 173.056 117.848C194.075 114.59 212.385 96.7326 225.699 80.1492C231.403 82.7678 236.251 86.9458 239.681 92.2011C223.096 121.254 187.261 135.235 187.229 135.165" stroke="#FF9500" stroke-width="2" stroke-linecap="round" stroke-linejoin="round"/>
<path d="M160.554 113.482C160.554 113.482 176.041 112.778 162.096 98.3768C152.522 88.4883 150.819 99.6167 152.901 104.397C153.485 105.735 152.404 105.679 151.105 105.319C147.468 104.304 147.248 109.979 153.515 110.364C154.018 110.631 154.457 111.004 154.801 111.457C159.07 117.684 158.949 121.358 151.908 124.698C133.752 133.315 123.627 132.733 91.4238 135.016" stroke="#FF9500" stroke-width="2" stroke-linecap="round" stroke-linejoin="round"/>
<path d="M160.586 113.482L165.985 116.117" stroke="#FF9500" stroke-width="2" stroke-linecap="round" stroke-linejoin="round"/>
<path d="M93.2881 158.122C111.993 157.415 136 154.401 154.126 148.031" stroke="#FF9500" stroke-width="2" stroke-linecap="round" stroke-linejoin="round"/>
<path d="M94.7663 137.393C87.2396 138.367 79.6255 138.465 72.0765 137.682C69.7613 137.359 67.4732 136.865 65.231 136.204C62.6503 135.497 60.1169 134.628 57.6463 133.601C50.8329 130.8 49.1617 132.058 55.5556 136.943C62.6943 141.675 70.4483 145.406 78.6006 148.031" stroke="#FF9500" stroke-width="2" stroke-linecap="round" stroke-linejoin="round"/>
<path d="M96.2131 155.101C91.2384 154.804 74.5094 154.763 69.5703 155.23C60.8912 156.066 63.8193 154.137 66.5257 152.498C68.4845 151.314 77.7099 148.995 74.3354 146.578" stroke="#FF9500" stroke-width="2" stroke-linecap="round" stroke-linejoin="round"/>
<path d="M64.1112 135.85C62.6328 134.758 59.742 132.217 58.9048 131.48C55.0566 128.097 56.2694 127.266 57.0086 127.589C59.9704 128.893 64.529 131.542 67.3267 132.699C71.8261 134.56 80.375 138.291 84.6172 138.195" stroke="#FF9500" stroke-width="2" stroke-linecap="round" stroke-linejoin="round"/>
<path d="M67.031 132.604C66.4846 131.928 66.0042 131.381 65.7454 131.062C62.5231 127.088 63.8171 126.466 64.492 126.916C67.1984 128.716 71.2783 132.048 73.8443 133.633C76.9322 135.45 80.1812 136.979 83.5502 138.2" stroke="#FF9500" stroke-width="2" stroke-linecap="round" stroke-linejoin="round"/>
<path d="M88.4033 138.004C90.8932 132.036 95.9339 135.448 97.1298 144.807C98.5337 155.801 93.2664 162.512 89.3353 154.941" stroke="#FF9500" stroke-width="2" stroke-linecap="round" stroke-linejoin="round"/>
<path d="M242.67 74.4303C241.486 72.8555 244.277 66.7492 244.566 64.8852C245.048 61.7678 245.444 58.2714 240.517 65.4958C236.572 70.9981 232.311 76.267 227.756 81.2758" stroke="#FF9500" stroke-width="2" stroke-linecap="round" stroke-linejoin="round"/>
<path d="M242.67 74.4303L247.651 78.9297C248.125 79.3512 248.746 79.5675 249.378 79.5315C250.011 79.4953 250.603 79.2094 251.026 78.7368L266.324 61.744C266.534 61.5094 266.694 61.2357 266.799 60.9385C266.902 60.6415 266.946 60.3267 266.929 60.0126C266.911 59.6983 266.831 59.3906 266.694 59.1073C266.557 58.824 266.366 58.5703 266.131 58.361L254.69 48.0429C254.455 47.833 254.181 47.6713 253.885 47.5672C253.587 47.4634 253.272 47.4191 252.958 47.437C252.643 47.4547 252.337 47.5346 252.053 47.6718C251.77 47.8088 251.517 48.0004 251.307 48.2357L236.007 65.2387C235.797 65.4733 235.635 65.747 235.532 66.044C235.427 66.3412 235.383 66.656 235.402 66.9703C235.419 67.2845 235.498 67.5922 235.637 67.8756C235.774 68.159 235.965 68.4126 236.2 68.6217L237.384 69.6822" stroke="#FF9500" stroke-width="2" stroke-linecap="round" stroke-linejoin="round"/>
<path d="M238.94 91.1134C243.956 85.7463 268.034 72.7218 264.846 72.2481C261.111 71.6916 254.389 75.4028 253.662 75.8104" stroke="#FF9500" stroke-width="2" stroke-linecap="round" stroke-linejoin="round"/>
<path d="M259.104 73.292C259.862 72.798 262.975 70.7869 265.552 69.388C268.13 67.9891 262.531 67.9417 259.189 69.6772" stroke="#FF9500" stroke-width="2" stroke-linecap="round" stroke-linejoin="round"/>
<path d="M246.677 78.0534C246.227 77.803 243.669 76.5885 238.65 78.0974" stroke="#FF9500" stroke-width="2" stroke-linecap="round" stroke-linejoin="round"/>
<path d="M272.559 177.63C273.048 178.698 273.21 179.887 273.024 181.047C272.836 182.206 272.31 183.285 271.512 184.146C270.712 185.005 269.677 185.611 268.533 185.881C267.391 186.154 266.194 186.081 265.093 185.672C263.991 185.262 263.036 184.537 262.347 183.584C261.659 182.632 261.268 181.499 261.226 180.325C261.182 179.151 261.486 177.991 262.102 176.991C262.719 175.99 263.618 175.195 264.685 174.706C265.394 174.378 266.16 174.193 266.94 174.164C267.72 174.134 268.499 174.257 269.23 174.53C269.962 174.802 270.632 175.215 271.204 175.748C271.776 176.281 272.236 176.92 272.559 177.63Z" stroke="#FF9500" stroke-width="2" stroke-linecap="round" stroke-linejoin="round"/>
<path d="M264.813 181.164C265.302 182.231 265.464 183.42 265.278 184.581C265.09 185.739 264.564 186.819 263.766 187.68C262.966 188.541 261.93 189.144 260.787 189.415C259.645 189.687 258.448 189.615 257.347 189.205C256.245 188.796 255.29 188.07 254.601 187.118C253.913 186.166 253.522 185.032 253.48 183.858C253.436 182.685 253.74 181.524 254.356 180.525C254.972 179.523 255.872 178.728 256.939 178.239C258.373 177.597 260.002 177.542 261.474 178.09C262.947 178.637 264.146 179.741 264.813 181.164Z" stroke="#FF9500" stroke-width="2" stroke-linecap="round" stroke-linejoin="round"/>
<path d="M257.068 184.733C257.557 185.8 257.719 186.99 257.533 188.15C257.345 189.309 256.819 190.388 256.021 191.249C255.221 192.11 254.185 192.714 253.042 192.984C251.9 193.257 250.703 193.184 249.601 192.774C248.5 192.365 247.545 191.64 246.856 190.687C246.168 189.735 245.777 188.602 245.735 187.428C245.691 186.254 245.995 185.093 246.611 184.094C247.228 183.092 248.126 182.297 249.194 181.809C249.902 181.48 250.669 181.296 251.449 181.267C252.228 181.237 253.008 181.36 253.739 181.633C254.471 181.905 255.141 182.318 255.713 182.85C256.285 183.383 256.745 184.023 257.068 184.733Z" stroke="#FF9500" stroke-width="2" stroke-linecap="round" stroke-linejoin="round"/>
<path d="M105.276 169.154C107.335 168.217 109.682 168.133 111.802 168.922C113.923 169.711 115.644 171.309 116.589 173.364L121.635 184.42C122.572 186.479 122.656 188.826 121.867 190.946C121.077 193.067 119.48 194.787 117.424 195.733L101.612 202.964C99.5532 203.901 97.2065 203.986 95.0862 203.196C92.9657 202.407 91.2444 200.809 90.2996 198.754L85.2251 187.698C84.2873 185.64 84.2039 183.292 84.993 181.172C85.7821 179.051 87.3795 177.331 89.4352 176.385L105.276 169.154Z" stroke="#FF9500" stroke-width="2" stroke-linecap="round" stroke-linejoin="round"/>
<path d="M261.953 161.593C262.663 161.264 263.213 160.666 263.485 159.931C263.756 159.197 263.725 158.385 263.399 157.672L261.631 153.752C261.301 153.041 260.704 152.491 259.969 152.22C259.234 151.949 258.423 151.98 257.71 152.305L227.82 165.964C227.109 166.294 226.56 166.892 226.287 167.626C226.017 168.361 226.047 169.173 226.374 169.885L228.141 173.806C228.471 174.516 229.068 175.066 229.804 175.338C230.538 175.609 231.35 175.579 232.062 175.252L261.953 161.593Z" stroke="#FF9500" stroke-width="2" stroke-linecap="round" stroke-linejoin="round"/>
<path d="M322.181 129.776C322.534 130.581 323.116 131.262 323.857 131.735C324.596 132.208 325.461 132.45 326.339 132.432C327.216 132.414 328.071 132.136 328.79 131.633C329.51 131.13 330.065 130.425 330.383 129.607C330.703 128.788 330.772 127.894 330.583 127.036C330.393 126.179 329.955 125.396 329.321 124.789C328.686 124.181 327.886 123.774 327.022 123.621C326.158 123.468 325.266 123.574 324.463 123.927C323.928 124.16 323.444 124.497 323.04 124.917C322.636 125.338 322.318 125.834 322.106 126.377C321.893 126.921 321.792 127.501 321.804 128.084C321.817 128.668 321.946 129.243 322.181 129.776Z" stroke="#FF9500" stroke-width="2" stroke-linecap="round" stroke-linejoin="round"/>
<path d="M297.466 140.671C297.818 141.475 298.401 142.157 299.142 142.63C299.881 143.102 300.746 143.345 301.624 143.327C302.502 143.309 303.356 143.031 304.075 142.528C304.795 142.025 305.35 141.32 305.668 140.501C305.988 139.683 306.057 138.789 305.868 137.931C305.678 137.074 305.24 136.291 304.606 135.683C303.972 135.075 303.171 134.669 302.307 134.516C301.443 134.362 300.551 134.469 299.748 134.822C299.213 135.055 298.73 135.391 298.325 135.812C297.921 136.232 297.603 136.729 297.392 137.272C297.178 137.816 297.077 138.396 297.089 138.979C297.102 139.562 297.231 140.137 297.466 140.671Z" stroke="#FF9500" stroke-width="2" stroke-linecap="round" stroke-linejoin="round"/>
<path d="M322.18 129.776L305.597 137.072" stroke="#FF9500" stroke-width="2" stroke-linecap="round" stroke-linejoin="round"/>
<path d="M328.929 77.3262L319.931 81.2792L325.651 123.573" stroke="#FF9500" stroke-width="2" stroke-linecap="round" stroke-linejoin="round"/>
<path d="M324.687 116.471L291.713 127.109L278.536 114.189L321.795 95.0986" stroke="#FF9500" stroke-width="2" stroke-linecap="round" stroke-linejoin="round"/>
<path d="M170.827 194.821C172.688 190.707 174.379 186.404 176.045 181.966C176.078 181.998 173.339 195.014 174.535 205.073" stroke="#FF9500" stroke-width="2" stroke-linecap="round" stroke-linejoin="round"/>
<path d="M144.646 127.848C152.841 141.121 157.051 157.351 158.465 159.922C166.628 164.518 181.958 160.661 186.94 155.23C189.181 137.498 187.109 131.138 181.316 115.796" stroke="#FF9500" stroke-width="2" stroke-linecap="round" stroke-linejoin="round"/>
<path d="M158.465 159.922C151.684 166.928 144.099 159.344 134.426 210.667C112.475 210.539 104.505 212.371 83.9361 214.781C80.3044 226.452 81.3328 238.981 85.6394 252.063L140.918 233.903C144.8 232.623 148.242 230.273 150.848 227.124C158.949 217.315 165.671 206.445 170.827 194.816C177.745 216.728 196.416 249.93 208.569 269.125C227.176 269.125 242.638 265.944 254.916 259.484C222.101 234.096 193.346 171.971 186.942 155.227" stroke="#FF9500" stroke-width="2" stroke-linecap="round" stroke-linejoin="round"/>
<path d="M154.127 123.509C156.43 127.152 158.533 130.918 160.426 134.79C167.85 134.34 173.474 132.99 177.363 129.519C176.343 125.487 174.9 121.575 173.057 117.848" stroke="#FF9500" stroke-width="2" stroke-linecap="round" stroke-linejoin="round"/>
<path d="M179.81 146.102L175.278 152.691L167.817 149.413C167.335 146.403 166.582 143.442 165.567 140.568C169.909 140.305 174.121 138.992 177.844 136.743C178.744 139.807 179.402 142.936 179.81 146.102Z" stroke="#FF9500" stroke-width="2" stroke-linecap="round" stroke-linejoin="round"/>
<path d="M240.873 265.113C251.191 276.49 267.768 282.018 276.259 292.559C264.85 292.334 241.357 288.381 230.717 284.01C228.403 279.64 229.592 277.583 223.036 268.423C229.066 267.833 235.034 266.725 240.873 265.113Z" stroke="#FF9500" stroke-width="2" stroke-linecap="round" stroke-linejoin="round"/>
<path d="M83.0041 218.414C75.8695 218.671 68.7293 218.099 61.7267 216.711C55.0436 231.173 50.2871 249.203 47.875 260.871C64.5244 253.053 64.9422 235.968 81.9114 234.258C81.4558 228.952 81.8244 223.607 83.0041 218.414Z" stroke="#FF9500" stroke-width="2" stroke-linecap="round" stroke-linejoin="round"/>
<path d="M156.826 121.099C161.551 120.938 165.568 120.006 167.914 117.274" stroke="#FF9500" stroke-width="2" stroke-linecap="round" stroke-linejoin="round"/>
<path d="M166.821 104.612C170.426 103.922 173.761 102.221 176.436 99.7068C179.11 97.1929 181.013 93.9699 181.924 90.4144C182.836 86.8588 182.716 83.1174 181.581 79.627C180.444 76.1367 178.34 73.0415 175.51 70.703C172.682 68.3643 169.246 66.8788 165.604 66.4201C161.962 65.9612 158.265 66.548 154.945 68.1116C151.624 69.6754 148.817 72.1516 146.851 75.2512C144.885 78.3507 143.841 81.9457 143.842 85.6161C143.799 88.5205 144.31 91.4066 145.349 94.1192C142.823 89.6577 138.826 86.2122 134.04 84.3716C129.255 82.5311 123.979 82.4098 119.114 84.0288C114.249 85.6475 110.098 88.9059 107.37 93.2468C104.641 97.5877 103.506 102.741 104.157 107.827C104.807 112.912 107.205 117.614 110.938 121.128C114.672 124.642 119.51 126.749 124.626 127.091C129.742 127.432 134.817 125.986 138.984 123C143.152 120.013 146.153 115.672 147.474 110.718C150.27 112.261 154.03 112.453 156.438 114.157" stroke="#FF9500" stroke-width="2" stroke-linecap="round" stroke-linejoin="round"/>
<path d="M61.7922 76.5548C62.1673 77.3812 62.2889 78.3004 62.1418 79.1959C61.9945 80.0915 61.5849 80.9232 60.965 81.5861C60.3451 82.249 59.5425 82.7132 58.6587 82.9199C57.775 83.1266 56.8498 83.0665 56.0001 82.7475C55.1505 82.4283 54.4145 81.8645 53.8852 81.1272C53.3561 80.3897 53.0574 79.512 53.027 78.605C52.9967 77.6979 53.236 76.802 53.7147 76.0311C54.1934 75.2599 54.89 74.6481 55.7165 74.2729C56.2647 74.0207 56.8575 73.8798 57.4606 73.8582C58.0637 73.8365 58.6652 73.9346 59.2302 74.1467C59.7952 74.3588 60.3124 74.6809 60.7522 75.0943C61.192 75.5075 61.5455 76.004 61.7922 76.5548Z" stroke="#FF9500" stroke-width="2" stroke-linecap="round" stroke-linejoin="round"/>
<path d="M77.3803 82.3077C77.7549 83.134 77.8764 84.0527 77.7291 84.9478C77.5817 85.8431 77.1722 86.6745 76.5524 87.3369C75.9325 87.9994 75.1302 88.4632 74.2469 88.6698C73.3635 88.8763 72.4387 88.8162 71.5894 88.4972C70.7401 88.178 70.0045 87.6144 69.4756 86.8773C68.9466 86.1403 68.6481 85.2629 68.6178 84.3563C68.5875 83.4495 68.8267 82.5542 69.3052 81.7833C69.7837 81.0125 70.48 80.401 71.3061 80.0259C71.8543 79.774 72.447 79.6333 73.0499 79.6118C73.6527 79.5903 74.254 79.6884 74.8188 79.9005C75.3836 80.1128 75.9007 80.4347 76.3403 80.8479C76.78 81.261 77.1335 81.7573 77.3803 82.3077Z" stroke="#FF9500" stroke-width="2" stroke-linecap="round" stroke-linejoin="round"/>
<path d="M60.1211 95.1309L70.6304 67.3311" stroke="#FF9500" stroke-width="2" stroke-linecap="round" stroke-linejoin="round"/>
<path d="M169.039 263.795L176.27 279.511" stroke="#FF9500" stroke-width="2" stroke-linecap="round" stroke-linejoin="round"/>
<path d="M180.513 268.038L164.797 275.301" stroke="#FF9500" stroke-width="2" stroke-linecap="round" stroke-linejoin="round"/>
<path d="M234.376 124.088C235.354 124.759 236.133 125.678 236.636 126.752C237.138 127.826 237.346 129.014 237.236 130.194" stroke="#FF9500" stroke-width="2" stroke-linecap="round" stroke-linejoin="round"/>
<path d="M237.815 118.917C239.588 120.369 241.012 122.199 241.987 124.273C242.959 126.348 243.457 128.613 243.441 130.904" stroke="#FF9500" stroke-width="2" stroke-linecap="round" stroke-linejoin="round"/>
<path d="M241.55 113.128C246.624 118.089 249.72 124.726 250.259 131.801" stroke="#FF9500" stroke-width="2" stroke-linecap="round" stroke-linejoin="round"/>
<path d="M204.937 47.6284L199.431 50.1251C199.088 50.2582 198.775 50.46 198.513 50.7181C198.251 50.9762 198.043 51.2851 197.904 51.6261C197.763 51.9671 197.696 52.333 197.703 52.7012C197.711 53.0695 197.792 53.4323 197.944 53.7675C198.097 54.103 198.317 54.4037 198.589 54.6514C198.861 54.899 199.181 55.0886 199.529 55.2082C199.878 55.3278 200.247 55.3751 200.615 55.3472C200.982 55.3192 201.339 55.2167 201.666 55.0456L204.751 53.6434C205.396 53.3685 206.123 53.3565 206.776 53.6101C207.429 53.8635 207.958 54.3623 208.249 55.0001C208.54 55.6378 208.569 56.364 208.332 57.0235C208.095 57.683 207.61 58.2236 206.979 58.5301L201.436 61.0674" stroke="#FF9500" stroke-width="2" stroke-linecap="round" stroke-linejoin="round"/>
<path d="M200.117 47.6284L206.256 61.064" stroke="#FF9500" stroke-width="2" stroke-linecap="round" stroke-linejoin="round"/>
<path d="M27.7567 172.876C27.3827 172.16 26.7491 171.614 25.9855 171.35C25.222 171.088 24.3866 171.127 23.6508 171.458C22.915 171.791 22.3344 172.394 22.0285 173.141C21.7226 173.889 21.7143 174.726 22.0056 175.479L23.4197 178.628" stroke="#FF9500" stroke-width="2" stroke-linecap="round" stroke-linejoin="round"/>
<path d="M45.561 186.533C46.0566 186.343 46.508 186.054 46.8876 185.682C47.2672 185.312 47.5669 184.867 47.7682 184.376C47.9695 183.884 48.0683 183.358 48.0583 182.827C48.0483 182.296 47.9299 181.773 47.7102 181.291C47.4906 180.807 47.1745 180.374 46.7812 180.017C46.3879 179.66 45.9258 179.39 45.4235 179.217C44.9211 179.046 44.3891 178.98 43.86 179.023C43.3309 179.063 42.816 179.214 42.3471 179.462C29.4274 182.548 24.9923 182.098 23.4175 178.627C24.9923 182.098 22.3891 185.731 11.5905 193.443C10.7148 193.906 10.0492 194.688 9.72949 195.625C9.40978 196.563 9.46012 197.588 9.8702 198.49C10.2803 199.392 11.0192 200.104 11.9362 200.479C12.8531 200.856 13.879 200.868 14.8044 200.513L45.561 186.533Z" stroke="#FF9500" stroke-width="2" stroke-linecap="round" stroke-linejoin="round"/>
</svg>
