<svg width="340" height="340" viewBox="0 0 340 340" fill="none" xmlns="http://www.w3.org/2000/svg">
<path d="M247.858 185.223C236.955 173.782 208.318 158.535 194.522 150.957C189.833 158.894 172.571 159.942 162.994 157.031C157.917 160.949 154.106 166.274 152.033 172.343C154.439 175.829 152.033 187.668 151.123 196.32C152.389 203.343 154.308 210.232 156.856 216.898C151.612 211.049 146.121 205.296 141.686 200.926C122.741 189.659 127.034 192.13 120.186 188.135C119.285 188.591 118.415 189.107 117.582 189.677C113.432 192.483 110.047 196.281 107.735 200.726C105.423 205.17 104.256 210.121 104.341 215.131C107.015 217.33 143.141 243.548 158.27 253.344C176.171 264.881 188.705 258.614 190.537 242.256C191.462 233.754 194.546 193.921 194.715 191.638C199.427 196.631 214.192 208.441 221.197 210.149C220.737 214.98 216.048 255.605 215.733 258.229C224.36 265.467 240.389 267.38 247.615 264.046C249.387 253.558 253.584 215.882 254.171 203.207C254.46 196.895 254.311 191.989 247.858 185.223Z" fill="#F6EADA"/>
<path d="M244.754 53.9021C241.71 54.5111 241.371 62.6979 241.348 65.8255C244.79 65.4191 248.281 65.8844 251.497 67.1787C249.8 59.1728 247.1 53.6129 244.754 53.9021Z" fill="#F6EADA"/>
<path d="M253.207 80.9307C250.411 82.9581 247.156 84.2611 243.734 84.723C244.494 87.6865 246.84 95.6467 249.873 95.4573C252.207 95.168 253.464 89.126 253.207 80.9307Z" fill="#F6EADA"/>
<path d="M229.392 70.0679L211.62 72.2533C209.948 75.21 210.436 81.2521 212.359 84.4659C213.712 83.4696 216.757 83.1804 219.236 82.9233C221.293 82.7304 221.711 83.3732 222.033 84.5302C222.097 84.7552 222.129 84.9801 222.193 85.2372C223.702 84.3374 226.83 83.2802 227.978 83.8553L231.023 83.4696C228.357 80.8343 227.464 73.4424 229.392 70.0679Z" fill="#F6EADA"/>
<path d="M132.141 283.5L122.532 276.751C121.453 275.996 120.718 274.844 120.488 273.549C120.259 272.251 120.553 270.917 121.308 269.837C122.062 268.76 123.214 268.024 124.511 267.794C125.807 267.566 127.141 267.86 128.22 268.614L129.699 269.643L130.727 268.165C131.481 267.087 132.633 266.351 133.929 266.123C135.225 265.895 136.559 266.189 137.637 266.943C138.715 267.698 139.449 268.85 139.678 270.145C139.907 271.441 139.612 272.776 138.858 273.853L132.141 283.5Z" fill="#F6EADA"/>
<path d="M95.5677 95.5857C99.8276 95.5857 103.281 92.1323 103.281 87.8724C103.281 83.6125 99.8276 80.1592 95.5677 80.1592C91.3079 80.1592 87.8545 83.6125 87.8545 87.8724C87.8545 92.1323 91.3079 95.5857 95.5677 95.5857Z" fill="#FFCC85"/>
<path d="M237.523 265.599C230.974 265.438 224.568 263.648 218.883 260.392C217.179 265.636 213.966 269.102 212.809 271.705C217.822 282.246 237.716 299.953 249.222 306.888C248.526 288.097 236.868 279.356 237.523 265.599Z" fill="#FFCC85"/>
<path d="M111.444 184.352C113.083 185.445 114.947 187.598 117.55 189.687C114.222 191.971 111.378 194.889 109.183 198.275C106.988 201.663 105.484 205.45 104.759 209.42C95.3425 210.674 85.1546 216.298 70.5908 214.273C75.5131 205.371 100.228 187.47 111.444 184.352Z" fill="#FFCC85"/>
<path d="M153.867 207.974C154.703 210.802 155.699 213.791 156.856 216.909C151.612 211.092 146.122 205.307 141.687 200.872C146.797 203.893 151.296 206.536 153.867 207.974Z" fill="#FFCC85"/>
<path d="M194.683 191.651C194.394 195.154 194.105 199.075 193.783 203.153C195.936 203.7 211.17 207.685 218.562 209.549C209.878 204.615 201.855 198.601 194.683 191.651Z" fill="#FFCC85"/>
<path d="M194.072 140.001C195.583 144.629 197.354 149.168 199.375 153.596C197.8 152.728 196.193 151.86 194.522 150.96C194.458 146.847 194.297 143.215 194.072 140.001Z" fill="#FFCC85"/>
<path d="M119.736 167.03C118.383 169.376 118.097 171.529 119.06 172.781C120.056 174.034 121.856 174.516 125.519 173.391C123.236 171.624 121.279 169.47 119.736 167.03Z" fill="#FFCC85"/>
<path d="M142.683 158.191C143.045 158.81 143.169 159.539 143.033 160.243C142.897 160.947 142.51 161.577 141.943 162.016C139.854 159.959 137.926 158.031 136.287 156.265C139.986 155.779 141.561 156.835 142.683 158.191Z" fill="#FFCC85"/>
<path d="M151.778 130.135C150.276 133.293 148.614 136.371 146.796 139.359C144.29 136.821 142.072 134.698 140.562 133.438C145.029 132.095 149.364 130.81 151.778 130.135Z" fill="#FFCC85"/>
<path d="M204.357 111.655C201.239 112.298 198.957 113.615 199.054 114.837C199.054 116.631 204.615 117.159 204.839 117.183C204.742 116.026 204.549 113.969 204.357 111.655Z" fill="#FFCC85"/>
<path d="M228.782 112.973C228.719 114.066 226.532 115.319 222.933 116.219C222.804 115.094 222.354 112.812 221.904 110.53C226.821 110.884 228.848 111.848 228.782 112.973Z" fill="#FFCC85"/>
<path d="M228.461 99.4745C227.211 100.268 225.81 100.794 224.347 101.017C221.904 101.403 220.233 99.3459 223.8 97.2569C221.197 97.7643 219.108 95.6178 222.901 93.2074C222.594 93.2037 222.29 93.1494 222.001 93.0468C221.229 93.8502 219.751 93.2396 218.337 87.7439C218.936 90.0382 218.958 92.4451 218.401 94.7501C218.533 98.193 219.48 101.556 221.165 104.561C221.231 104.711 221.317 104.852 221.422 104.979C224.217 104.333 226.901 103.283 229.393 101.861C229.007 101.097 228.694 100.298 228.461 99.4745Z" fill="#FFCC85"/>
<path d="M198.924 67.7538C204.388 65.7612 201.978 59.1728 198.089 57.823C202.01 55.8626 200.821 49.0814 195.903 49.3385C198.667 45.6425 196.45 40.4682 190.761 41.2717C191.5 36.5795 188.287 33.4908 183.209 35.6475C183.337 30.3767 176.95 28.0949 174.114 31.6301C172.929 26.4237 167.139 24.5258 162.769 29.6003C161.585 24.2975 153.159 24.1368 152.388 29.4718C148.821 24.9047 140.979 27.5113 141.525 32.7178C136.672 27.7363 130.084 33.1999 130.53 38.638C125.485 35.8098 120.825 42.7839 122.919 47.3154C116.523 48.2474 115.138 54.4197 119.255 58.141C113.245 60.2622 114.113 66.1114 118.034 68.811C113.438 71.9606 114.563 78.2276 120.026 79.0632C116.105 83.4611 120.283 90.633 125.65 89.6046C122.661 94.5861 126.743 100.082 132.078 97.893C131.621 99.1663 131.647 100.563 132.15 101.819C132.653 103.074 133.599 104.102 134.808 104.708C138.633 103.326 147.728 99.8872 147.728 99.8872C158.205 95.8057 160.712 87.8674 162.737 79.6078C156.919 77.7472 159.458 71.9268 162.383 74.1764C165.179 76.3297 164.279 73.4373 163.99 70.352C167.726 69.2581 171.576 68.6002 175.463 68.3915C180.223 82.7236 179.413 89.7247 173.621 89.4625C170.837 89.0652 168.169 88.0853 165.79 86.587C166.589 88.5926 167.767 90.4252 169.261 91.9846C169.261 95.3219 171.619 99.5506 176.62 102.335L178.42 103.331C179.288 103.813 180.252 104.36 181.248 104.97C182.41 104.671 183.415 103.938 184.054 102.922C184.694 101.906 184.921 100.684 184.687 99.5067C185.694 100.167 186.881 100.495 188.082 100.445C189.285 100.395 190.44 99.9691 191.389 99.2276C192.336 98.486 193.026 97.4659 193.363 96.3111C193.701 95.1561 193.667 93.9245 193.268 92.7897C198.86 92.7254 199.599 86.5548 196.61 83.5981C201.335 82.4733 201.142 77.781 197.671 75.8849C202.042 74.5029 202.267 69.65 198.924 67.7538Z" fill="#FFCC85"/>
<path d="M217.468 243.198L189.219 248.179" stroke="#FF9500" stroke-width="2" stroke-linecap="round" stroke-linejoin="round"/>
<path d="M248.193 94.8145L272.651 233.46L251.022 237.284" stroke="#FF9500" stroke-width="2" stroke-linecap="round" stroke-linejoin="round"/>
<path d="M195.582 85.5907L205.866 83.7588" stroke="#FF9500" stroke-width="2" stroke-linecap="round" stroke-linejoin="round"/>
<path d="M94.6676 127.049L90.6182 104.103L126.822 97.7092" stroke="#FF9500" stroke-width="2" stroke-linecap="round" stroke-linejoin="round"/>
<path d="M105.209 186.859L98.5889 149.257" stroke="#FF9500" stroke-width="2" stroke-linecap="round" stroke-linejoin="round"/>
<path d="M158.656 253.579L118.225 260.714L111.059 220.155" stroke="#FF9500" stroke-width="2" stroke-linecap="round" stroke-linejoin="round"/>
<path d="M303.279 314.454L256.838 51.0875C256.334 48.2161 255.27 45.4724 253.704 43.0133C252.139 40.554 250.105 38.4276 247.716 36.7559C245.328 35.0842 242.633 33.9 239.786 33.2709C236.941 32.6418 233.998 32.5803 231.128 33.0899L190.971 40.1639M111.508 314.454L93.4064 212.213M116.98 53.1985L88.7219 58.1765C85.8494 58.6799 83.1043 59.7446 80.6435 61.3092C78.1825 62.874 76.0541 64.9084 74.3797 67.2961C72.7054 69.6838 71.5178 72.378 70.8852 75.2248C70.2524 78.0716 70.187 81.0152 70.6922 83.8873V83.9195L90.5252 195.939" stroke="#FF9500" stroke-width="2" stroke-linecap="round" stroke-linejoin="round"/>
<path d="M298.136 116.347C302.644 116.347 306.299 112.693 306.299 108.184C306.299 103.676 302.644 100.021 298.136 100.021C293.628 100.021 289.973 103.676 289.973 108.184C289.973 112.693 293.628 116.347 298.136 116.347Z" stroke="#FF9500" stroke-width="2" stroke-linecap="round" stroke-linejoin="round"/>
<path d="M322.529 133.123C327.037 133.123 330.693 129.469 330.693 124.96C330.693 120.452 327.037 116.797 322.529 116.797C318.022 116.797 314.366 120.452 314.366 124.96C314.366 129.469 318.022 133.123 322.529 133.123Z" stroke="#FF9500" stroke-width="2" stroke-linecap="round" stroke-linejoin="round"/>
<path d="M295.115 138.105L325.486 94.718" stroke="#FF9500" stroke-width="2" stroke-linecap="round" stroke-linejoin="round"/>
<path d="M326.126 48.9851C325.314 48.4019 324.306 48.1625 323.318 48.319C322.332 48.4755 321.447 49.0151 320.855 49.8207L320.052 50.9134C320.052 50.9134 318.867 50.0778 318.83 50.0457C318 49.5064 316.99 49.3156 316.019 49.5144C315.048 49.713 314.194 50.2852 313.642 51.1078C313.089 51.9302 312.881 52.9368 313.066 53.9106C313.248 54.8842 313.806 55.7471 314.62 56.3127L321.916 61.4227L327.026 54.1273C327.57 53.3201 327.78 52.3336 327.612 51.3749C327.445 50.416 326.912 49.5596 326.126 48.9851Z" stroke="#FF9500" stroke-width="2" stroke-linecap="round" stroke-linejoin="round"/>
<path d="M165.469 273.73C166.174 272.261 166.399 270.609 166.112 269.005C165.96 267.15 165.251 265.384 164.077 263.939C162.904 262.495 161.32 261.438 159.535 260.91C157.75 260.382 155.847 260.406 154.076 260.979C152.305 261.553 150.748 262.647 149.612 264.122C148.475 265.595 147.811 267.38 147.706 269.239C147.601 271.096 148.062 272.943 149.026 274.535C149.991 276.128 151.414 277.392 153.11 278.16C154.806 278.928 156.694 279.164 158.527 278.84C160.391 278.511 162.121 277.652 163.508 276.365L167.558 277.233L165.469 273.73Z" stroke="#FF9500" stroke-width="2" stroke-linecap="round" stroke-linejoin="round"/>
<path d="M260.887 262.385L267.894 254.221L277.246 259.492L274.321 242.973L257.963 245.865L260.887 262.385Z" stroke="#FF9500" stroke-width="2" stroke-linecap="round" stroke-linejoin="round"/>
<path d="M107.651 85.7515L118.461 83.8457" stroke="#FF9500" stroke-width="2" stroke-linecap="round" stroke-linejoin="round"/>
<path d="M36.7536 204.278C38.9724 204.278 40.771 202.48 40.771 200.261C40.771 198.042 38.9724 196.244 36.7536 196.244C34.5349 196.244 32.7363 198.042 32.7363 200.261C32.7363 202.48 34.5349 204.278 36.7536 204.278Z" stroke="#FF9500" stroke-width="2" stroke-linecap="round" stroke-linejoin="round"/>
<path d="M60.7292 200.036C62.948 200.036 64.7465 198.238 64.7465 196.019C64.7465 193.799 62.948 192.001 60.7292 192.001C58.5105 192.001 56.7119 193.799 56.7119 196.019C56.7119 198.238 58.5105 200.036 60.7292 200.036Z" stroke="#FF9500" stroke-width="2" stroke-linecap="round" stroke-linejoin="round"/>
<path d="M40.6748 199.554L56.7762 196.726" stroke="#FF9500" stroke-width="2" stroke-linecap="round" stroke-linejoin="round"/>
<path d="M9.30762 163.623L18.0493 162.08L34.9863 196.661" stroke="#FF9500" stroke-width="2" stroke-linecap="round" stroke-linejoin="round"/>
<path d="M32.126 190.844L62.2076 182.263L65.5822 165.969L23.5771 173.393" stroke="#FF9500" stroke-width="2" stroke-linecap="round" stroke-linejoin="round"/>
<path d="M38.2969 95.2644L41.7678 114.965" stroke="#FF9500" stroke-width="2" stroke-linecap="round" stroke-linejoin="round"/>
<path d="M49.8982 103.396L30.1973 106.866" stroke="#FF9500" stroke-width="2" stroke-linecap="round" stroke-linejoin="round"/>
<path d="M309.932 170.597L316.006 205.178" stroke="#FF9500" stroke-width="2" stroke-linecap="round" stroke-linejoin="round"/>
<path d="M330.275 184.867L295.662 190.941" stroke="#FF9500" stroke-width="2" stroke-linecap="round" stroke-linejoin="round"/>
<path d="M222.932 116.186C222.675 113.808 220.875 106.256 221.164 104.515" stroke="#FF9500" stroke-width="2" stroke-linecap="round" stroke-linejoin="round"/>
<path d="M218.433 95.0396C218.712 98.5247 219.73 101.91 221.421 104.97C224.221 104.339 226.907 103.288 229.392 101.853C229.001 101.105 228.69 100.319 228.46 99.5068" stroke="#FF9500" stroke-width="2" stroke-linecap="round" stroke-linejoin="round"/>
<path d="M253.239 80.9306C253.496 89.1259 252.211 95.1747 249.897 95.4572C246.942 95.8192 243.405 86.812 241.991 75.3385C240.577 63.8651 241.83 54.2607 244.787 53.9021C247.133 53.6163 249.833 59.1729 251.536 67.1753" stroke="#FF9500" stroke-width="2" stroke-linecap="round" stroke-linejoin="round"/>
<path d="M231.031 83.4696C228.364 80.8343 227.464 73.4424 229.392 70.0679" stroke="#FF9500" stroke-width="2" stroke-linecap="round" stroke-linejoin="round"/>
<path d="M212.358 84.4658C210.43 81.252 209.948 75.2099 211.619 72.2532" stroke="#FF9500" stroke-width="2" stroke-linecap="round" stroke-linejoin="round"/>
<path d="M241.382 65.8256C249.513 65.0221 256.519 68.3628 257.13 73.5067C257.74 78.6506 251.795 83.566 243.696 84.723" stroke="#FF9500" stroke-width="2" stroke-linecap="round" stroke-linejoin="round"/>
<path d="M227.979 83.8554L231.032 83.4697L248.483 95.0074" stroke="#FF9500" stroke-width="2" stroke-linecap="round" stroke-linejoin="round"/>
<path d="M243.533 54.6736L229.392 70.0662L210.205 72.4123C201.785 73.4408 202.492 86.1033 211.009 85.8784" stroke="#FF9500" stroke-width="2" stroke-linecap="round" stroke-linejoin="round"/>
<path d="M204.357 111.655C201.207 112.298 198.957 113.615 199.054 114.805C199.182 116.379 203.232 117.783 214.352 117.311C222.836 116.951 228.696 114.774 228.782 112.941C228.833 111.846 226.789 110.852 221.904 110.498" stroke="#FF9500" stroke-width="2" stroke-linecap="round" stroke-linejoin="round"/>
<path d="M141.943 162.05C142.511 161.612 142.9 160.982 143.036 160.278C143.172 159.573 143.046 158.844 142.682 158.226C141.202 155.9 135.993 154.809 127.995 159.35C120.598 163.55 116.99 170.166 119.061 172.816C120.033 174.063 121.857 174.552 125.52 173.427" stroke="#FF9500" stroke-width="2" stroke-linecap="round" stroke-linejoin="round"/>
<path d="M136.255 156.263C140.015 160.313 145.198 165.157 150.749 170.501C151.64 171.429 152.309 172.549 152.704 173.774C153.099 174.998 153.211 176.298 153.031 177.571C152.838 180.399 151.039 196.726 150.749 199.04C150.364 201.931 147.028 203.473 147.246 182.392" stroke="#FF9500" stroke-width="2" stroke-linecap="round" stroke-linejoin="round"/>
<path d="M119.735 166.998C121.362 169.689 123.538 172.004 126.123 173.796C128.708 175.585 131.641 176.81 134.732 177.387" stroke="#FF9500" stroke-width="2" stroke-linecap="round" stroke-linejoin="round"/>
<path d="M135.324 175.868C135.131 176.478 134.103 178.889 133.971 179.251" stroke="#FF9500" stroke-width="2" stroke-linecap="round" stroke-linejoin="round"/>
<path d="M129.86 175.932C129.635 178.535 130.181 181.78 132.656 183.42C135.709 185.45 137.026 184.481 140.176 177.732" stroke="#FF9500" stroke-width="2" stroke-linecap="round" stroke-linejoin="round"/>
<path d="M136.415 183.838C140.015 185.959 141.621 185.252 144.675 178.117" stroke="#FF9500" stroke-width="2" stroke-linecap="round" stroke-linejoin="round"/>
<path d="M140.915 184.352C144.193 186.213 146.121 185.831 149.175 178.343" stroke="#FF9500" stroke-width="2" stroke-linecap="round" stroke-linejoin="round"/>
<path d="M139.215 173.232C142.671 173.192 146.127 173.361 149.563 173.74" stroke="#FF9500" stroke-width="2" stroke-linecap="round" stroke-linejoin="round"/>
<path d="M120.571 132.738C125.778 138.2 139.758 154.721 142.683 158.16" stroke="#FF9500" stroke-width="2" stroke-linecap="round" stroke-linejoin="round"/>
<path d="M125.488 138.2C128.927 136.979 145.896 131.772 151.778 130.133C150.267 133.283 148.596 136.368 146.796 139.357" stroke="#FF9500" stroke-width="2" stroke-linecap="round" stroke-linejoin="round"/>
<path d="M151.103 196.179C152.593 204.275 154.897 212.2 157.98 219.833" stroke="#FF9500" stroke-width="2" stroke-linecap="round" stroke-linejoin="round"/>
<path d="M140.568 133.477C145.196 137.302 156.252 149.161 163.001 157.035C157.926 160.914 154.121 166.217 152.074 172.268" stroke="#FF9500" stroke-width="2" stroke-linecap="round" stroke-linejoin="round"/>
<path d="M111.508 164.619C110.865 157.87 123.882 145.979 134.455 148.55" stroke="#FF9500" stroke-width="2" stroke-linecap="round" stroke-linejoin="round"/>
<path d="M204.87 117.183C204.742 115.062 204.131 109.984 204.035 105.71C203.874 98.5748 204.385 96.8055 206.22 93.3616C207.885 90.2107 209.913 87.2659 212.262 84.5878C213.531 83.4799 216.729 83.1821 219.3 82.9487C221.357 82.7627 221.756 83.3936 222.096 84.5556C222.602 86.8221 222.809 89.1454 222.707 91.4654C222.639 93.4259 220.457 95.7398 218.433 87.7441C219.461 92.5328 218.979 96.7091 215.187 99.2463" stroke="#FF9500" stroke-width="2" stroke-linecap="round" stroke-linejoin="round"/>
<path d="M228.428 91.2793C230.131 91.8899 230.148 94.2276 228.363 95.4252C226.981 96.3394 225.427 96.9627 223.796 97.2571C221.188 97.7442 219.104 95.618 222.897 93.2076" stroke="#FF9500" stroke-width="2" stroke-linecap="round" stroke-linejoin="round"/>
<path d="M228.357 95.425C228.734 95.6077 229.052 95.8907 229.278 96.2427C229.503 96.5946 229.629 97.002 229.639 97.4203C229.649 97.8387 229.544 98.2515 229.334 98.6139C229.124 98.9764 228.82 99.2741 228.453 99.4745C227.205 100.27 225.804 100.796 224.339 101.017C221.895 101.396 220.225 99.3459 223.793 97.2569" stroke="#FF9500" stroke-width="2" stroke-linecap="round" stroke-linejoin="round"/>
<path d="M222.321 85.2051C223.776 84.3386 225.418 83.8338 227.11 83.7335C229.486 83.5931 229.681 86.7782 227.399 87.6865C225.914 88.3576 224.329 88.7809 222.707 88.9399" stroke="#FF9500" stroke-width="2" stroke-linecap="round" stroke-linejoin="round"/>
<path d="M228.139 87.2297C229.842 87.9368 229.842 90.3793 227.978 91.6006C227.046 92.2112 224.121 93.6304 222.129 93.0468" stroke="#FF9500" stroke-width="2" stroke-linecap="round" stroke-linejoin="round"/>
<path d="M182.984 111.173C188.319 116.155 194.072 120.525 194.554 150.961C253.496 182.81 254.814 189.784 254.203 203.218C253.625 215.945 249.318 254.447 247.606 264.024C240.407 267.366 224.402 265.438 215.725 258.207C216.818 248.565 220.867 213.759 221.189 210.168C215.757 208.85 196.249 203.74 193.807 203.13" stroke="#FF9500" stroke-width="2" stroke-linecap="round" stroke-linejoin="round"/>
<path d="M217.051 247.087C222.836 253.482 239.741 256.825 249.189 253.064" stroke="#FF9500" stroke-width="2" stroke-linecap="round" stroke-linejoin="round"/>
<path d="M195.679 179.5C194.908 188.464 191.748 231.241 190.505 242.266C188.659 258.623 176.127 264.915 158.238 253.354C143.153 243.602 107.973 218.001 104.341 215.141C104.256 209.622 105.689 204.185 108.483 199.424C111.277 194.664 115.325 190.762 120.186 188.145C130.052 193.865 147.632 204.503 153.867 207.935" stroke="#FF9500" stroke-width="2" stroke-linecap="round" stroke-linejoin="round"/>
<path d="M112.408 221.119C112.312 211.413 119.382 197.304 129.602 193.737" stroke="#FF9500" stroke-width="2" stroke-linecap="round" stroke-linejoin="round"/>
<path d="M162.994 157.035C173.343 160.313 190.183 158.288 194.554 150.993" stroke="#FF9500" stroke-width="2" stroke-linecap="round" stroke-linejoin="round"/>
<path d="M167.526 158.063C155.57 175.964 159.363 203.957 165.373 233.685C146.668 221.76 122.821 207.396 117.902 203.925" stroke="#FF9500" stroke-width="2" stroke-linecap="round" stroke-linejoin="round"/>
<path d="M218.885 260.424C217.214 265.668 213.968 269.134 212.811 271.737C217.824 282.246 237.75 299.954 249.223 306.896C248.484 287.782 236.432 278.165 237.525 265.663" stroke="#FF9500" stroke-width="2" stroke-linecap="round" stroke-linejoin="round"/>
<path d="M117.55 189.687C114.947 187.63 113.083 185.477 111.444 184.352C100.227 187.47 75.5129 205.371 70.5957 214.241C85.1545 216.271 95.3745 210.674 104.764 209.388" stroke="#FF9500" stroke-width="2" stroke-linecap="round" stroke-linejoin="round"/>
<path d="M228.782 112.973C229.199 160.827 228.332 165.747 224.636 168.09" stroke="#FF9500" stroke-width="2" stroke-linecap="round" stroke-linejoin="round"/>
<path d="M199.054 114.837C200.371 122.293 203.489 142.669 204.582 147.747" stroke="#FF9500" stroke-width="2" stroke-linecap="round" stroke-linejoin="round"/>
<path d="M201.046 126.825C208.658 129.974 224.764 129.396 228.878 124.118" stroke="#FF9500" stroke-width="2" stroke-linecap="round" stroke-linejoin="round"/>
<path d="M194.715 191.651C201.88 198.61 209.905 204.625 218.594 209.552" stroke="#FF9500" stroke-width="2" stroke-linecap="round" stroke-linejoin="round"/>
<path d="M141.687 200.872C146.084 205.307 151.617 211.059 156.856 216.909" stroke="#FF9500" stroke-width="2" stroke-linecap="round" stroke-linejoin="round"/>
<path d="M194.072 139.969C195.578 144.599 197.347 149.138 199.375 153.564" stroke="#FF9500" stroke-width="2" stroke-linecap="round" stroke-linejoin="round"/>
<path d="M169.231 88.3006C168.061 87.7895 166.923 87.2088 165.822 86.5618C166.632 88.5559 167.804 90.383 169.278 91.9509" stroke="#FF9500" stroke-width="2" stroke-linecap="round" stroke-linejoin="round"/>
<path d="M118.888 172.568C107.487 160.58 101.865 153.296 96.2424 146.333C87.2436 135.181 92.609 126.018 104.277 118.469C116.456 110.591 133.709 105.378 147.76 99.8925C158.234 95.8024 160.712 87.8727 162.801 79.6131C156.984 77.7524 159.516 71.9421 162.448 74.1817C165.237 76.3113 164.308 73.4103 164.055 70.3572C167.795 69.2816 171.643 68.6241 175.528 68.3967C181.294 85.8395 178.857 92.4397 169.231 88.2938C168.61 96.413 172.598 100.082 176.653 102.333C182.534 105.611 192.401 110.946 200.403 122.902" stroke="#FF9500" stroke-width="2" stroke-linecap="round" stroke-linejoin="round"/>
<path d="M145.961 100.599C155.699 103.813 168.965 112.201 175.914 117.729C177.455 113.079 178.309 108.228 178.451 103.331" stroke="#FF9500" stroke-width="2" stroke-linecap="round" stroke-linejoin="round"/>
<path d="M134.84 104.708C133.635 104.1 132.692 103.073 132.19 101.82C131.687 100.566 131.659 99.1725 132.11 97.8998C126.775 100.085 122.694 94.6217 125.683 89.6114C120.315 90.6399 116.137 83.473 120.058 79.1022C114.595 78.2344 113.462 71.9674 118.066 68.8178C114.145 66.1114 113.277 60.269 119.287 58.1479C115.173 54.4266 116.555 48.2492 122.951 47.3223C120.862 42.7907 125.522 35.8201 130.563 38.6449C130.113 33.2456 136.701 27.7499 141.557 32.7246C141.011 27.5182 148.853 24.915 152.42 29.4786C153.191 24.1436 161.612 24.3043 162.801 29.6072C167.172 24.5327 172.95 26.4255 174.146 31.637C176.974 28.1017 183.37 30.3836 183.241 35.6543C188.315 33.501 191.529 36.5863 190.794 41.2785C196.482 40.4751 198.7 45.6494 195.936 49.3453C200.885 49.0882 202.042 55.8694 198.121 57.8299C202.012 59.1831 204.42 65.7681 198.957 67.7607C199.748 68.1898 200.388 68.8532 200.789 69.6599C201.189 70.4667 201.33 71.3774 201.193 72.2675C201.056 73.1576 200.646 73.9835 200.022 74.6322C199.398 75.2811 198.588 75.7209 197.703 75.8917C201.174 77.7879 201.367 82.4885 196.611 83.6049C199.599 86.5617 198.86 92.739 193.268 92.7965C193.667 93.9314 193.701 95.163 193.365 96.3179C193.026 97.4727 192.336 98.4928 191.389 99.2344C190.44 99.9759 189.285 100.402 188.082 100.452C186.881 100.502 185.694 100.174 184.687 99.5135C184.921 100.691 184.694 101.913 184.055 102.929C183.415 103.945 182.41 104.678 181.248 104.977" stroke="#FF9500" stroke-width="2" stroke-linecap="round" stroke-linejoin="round"/>
<path d="M132.141 283.5L122.532 276.751C121.453 275.996 120.718 274.844 120.488 273.549C120.259 272.251 120.553 270.917 121.308 269.837C122.062 268.76 123.214 268.024 124.511 267.794C125.807 267.566 127.141 267.86 128.22 268.614L129.699 269.643L130.727 268.165C131.481 267.087 132.633 266.351 133.929 266.123C135.225 265.895 136.559 266.189 137.637 266.943C138.715 267.698 139.449 268.85 139.678 270.145C139.907 271.441 139.612 272.776 138.858 273.853L132.141 283.5Z" stroke="#FF9500" stroke-width="2" stroke-linejoin="round"/>
</svg>
