<svg width="340" height="340" viewBox="0 0 340 340" fill="none" xmlns="http://www.w3.org/2000/svg">
<path d="M164.756 174.146C155.275 180.606 148.655 191.34 144.12 201.978C138.577 214.947 84.2308 286.519 85.5942 287.627C86.1016 288.451 86.6345 289.244 87.1926 290.007L84.1479 293.38C87.6832 298.522 96.1677 304.5 101.985 305.753C102.746 304.344 103.612 302.993 104.573 301.71C105.965 302.06 107.377 302.326 108.802 302.507C117.154 292.243 138.993 264.956 158.444 239.137C154.553 259.574 149.898 281 145.081 306.589C146.079 307.072 147.099 307.509 148.126 307.915L146.424 315.62C152.979 317.484 159.923 317.484 166.478 315.62L167.752 310.905C169.139 310.821 170.528 310.687 171.91 310.51C185.376 269.758 195.76 216.408 201.863 175.56L164.756 174.146ZM151.13 240.284C145.409 238.966 137.471 233.348 133.903 228.907L148.856 206.509C153.421 212.409 159.559 216.899 166.565 219.461L151.13 240.284Z" fill="#F6EADA"/>
<path d="M96.5314 195.261L91.9999 197.993L96.9813 206.574C80.3047 213.874 62.1179 217.059 43.9528 215.862L56.7118 238.134L105.144 210.173L96.5314 195.261Z" fill="#F6EADA"/>
<path d="M82.0691 169.968L59.5721 182.888C66.7977 182.382 73.9218 180.902 80.7514 178.49L83.4189 183.246C85.0808 182.463 86.8134 181.84 88.5932 181.386L82.0691 169.968Z" fill="#F6EADA"/>
<path d="M84.7366 185.427L85.4758 186.712L87.5648 185.555C86.621 185.572 85.6754 185.53 84.7366 185.427Z" fill="#FFCC85"/>
<path d="M210.719 88.9771C208.952 89.17 207.056 91.8053 205.802 95.5977C207.155 94.9211 208.598 94.1193 210.369 93.0909C211.378 92.4817 212.533 92.1595 213.712 92.1588C213.226 90.4572 212.262 88.786 210.719 88.9771Z" fill="#FFCC85"/>
<path d="M212.808 105.498C210.302 106.751 207.023 108.358 205.127 109.451C205.635 110.929 206.409 111.883 207.377 112.054C209.266 112.388 211.394 109.613 212.808 105.498Z" fill="#FFCC85"/>
<path d="M217.629 113.404C217.629 113.372 215.026 115.236 211.426 117.614L228.172 114.786L217.629 113.404Z" fill="#FFCC85"/>
<path d="M188.512 115.911L191.308 120.217C191.17 119.13 191.095 118.035 191.083 116.939C191.083 116.907 189.604 116.329 188.512 115.911Z" fill="#FFCC85"/>
<path d="M177.263 102.831C165.565 111.154 169.132 115.855 182.566 111.637L182.311 110.811C182.787 110.143 183.053 109.348 183.075 108.527C183.098 107.707 182.876 106.899 182.438 106.205C179.9 102.959 182.856 100.709 184.334 103.216C185.137 104.598 185.491 104.084 185.491 102.895C184.88 102.573 184.88 102.218 185.427 101.899C185.361 101.303 185.254 100.712 185.105 100.131C185.303 100.405 185.558 100.632 185.853 100.796C186.148 100.961 186.475 101.06 186.812 101.085C187.149 101.109 187.488 101.06 187.803 100.939C188.119 100.819 188.405 100.631 188.64 100.388C185.619 99.5203 186.037 98.6526 186.611 98.5883C191.085 98.3634 192.736 98.9385 199.635 98.3955C201.454 97.6276 204.975 96.112 206.706 95.1495C206.586 89.1464 186.996 95.7567 177.263 102.831Z" fill="#FFCC85"/>
<path d="M198.828 103.827C198.25 104.213 197.644 104.598 197.028 104.984C196.868 104.277 196.9 104.695 197.157 103.859C197.703 103.827 198.248 103.827 198.828 103.827Z" fill="#FFCC85"/>
<path d="M158.498 239.098L155.83 252.692L187.358 198.346C180.702 208.984 169.936 223.896 158.498 239.098Z" fill="#FFCC85"/>
<path d="M187.483 328.218C181.988 323.558 173.824 317.741 166.497 315.62C159.942 317.484 152.997 317.484 146.442 315.62C145.085 319.487 144.252 323.519 143.968 327.607C143.946 327.979 144 328.352 144.127 328.703C144.254 329.053 144.451 329.374 144.707 329.646C144.963 329.916 145.272 330.132 145.615 330.279C145.958 330.426 146.327 330.501 146.7 330.5C159.555 330.532 170.611 330.66 186.583 330.693C186.869 330.688 187.147 330.597 187.38 330.431C187.613 330.266 187.791 330.034 187.889 329.766C187.986 329.497 187.999 329.205 187.926 328.929C187.854 328.653 187.699 328.405 187.483 328.218Z" fill="#FFCC85"/>
<path d="M98.8776 320.544C98.6374 315.417 99.7233 310.313 102.027 305.728C96.2101 304.474 87.7255 298.497 84.1903 293.354L82.042 295.758C78.6049 298.725 78.8485 303.64 80.403 307.906C82.2027 312.92 83.8418 321.405 85.7701 325.615C86.5396 327.172 87.7379 328.477 89.2239 329.376C90.71 330.275 92.4219 330.73 94.1583 330.689H107.046C104.47 323.976 102.606 324.04 98.8776 320.544Z" fill="#FFCC85"/>
<path d="M167.847 162.705L164.344 168.297L164.086 164.922L167.847 162.705Z" fill="#FFCC85"/>
<path d="M71.5598 189.765L70.4993 185.201L75.0629 184.141L76.1235 188.705L71.5598 189.765Z" fill="#FFCC85"/>
<path d="M62.3682 190.89L61.9183 186.23L66.5462 185.78L67.0283 190.44L62.3682 190.89Z" fill="#FFCC85"/>
<path d="M53.2408 191.147V186.487H57.9331V191.147H53.2408Z" fill="#FFCC85"/>
<path d="M215.122 142.714C212.277 144.539 209.338 146.213 206.317 147.728C206.253 146.579 206.083 145.439 205.809 144.321L215.122 142.714Z" fill="#FFCC85"/>
<path d="M182.052 64.3608L161.74 49.4756H102.316V79.2409H140.568L140.439 78.9838C152.094 72.2481 165.087 68.1557 178.498 66.9961L182.052 64.3608ZM155.184 69.4708C155.23 69.5143 155.262 69.5709 155.274 69.633C155.287 69.695 155.28 69.7595 155.255 69.8176C155.239 69.8565 155.215 69.8916 155.184 69.9207C155.155 69.9511 155.12 69.9753 155.081 69.9919C155.043 70.0084 155.001 70.0169 154.959 70.0169C154.917 70.0169 154.875 70.0084 154.837 69.9919C154.798 69.9753 154.763 69.9511 154.734 69.9207L148.853 64.0005L142.936 69.8886C142.892 69.9347 142.836 69.9662 142.774 69.9789C142.712 69.9917 142.647 69.9849 142.589 69.9596C142.55 69.9433 142.515 69.9191 142.486 69.8886C142.44 69.8451 142.408 69.7885 142.396 69.7265C142.383 69.6644 142.39 69.5999 142.415 69.5419C142.431 69.503 142.455 69.4678 142.486 69.4387L148.406 63.5573L142.525 57.6371C142.465 57.5774 142.432 57.4965 142.432 57.4121C142.432 57.3277 142.465 57.2468 142.525 57.1871C142.585 57.1275 142.665 57.0939 142.75 57.0939C142.834 57.0939 142.915 57.1275 142.975 57.1871L148.856 63.1074L154.776 57.226C154.836 57.1667 154.917 57.1335 155.001 57.1335C155.086 57.1335 155.166 57.1667 155.226 57.226C155.286 57.2859 155.319 57.3667 155.319 57.451C155.319 57.5353 155.286 57.6161 155.226 57.676L149.306 63.5573L155.184 69.4708Z" fill="#FFCC85"/>
<path d="M84.7366 185.427L85.4758 186.712" stroke="#FF9500" stroke-width="2" stroke-linecap="round" stroke-linejoin="round"/>
<path d="M102.316 305.207V323.429" stroke="#FF9500" stroke-width="2" stroke-linecap="round" stroke-linejoin="round"/>
<path d="M102.316 211.812V263.105" stroke="#FF9500" stroke-width="2" stroke-linecap="round" stroke-linejoin="round"/>
<path d="M102.316 9.30762V115.911" stroke="#FF9500" stroke-width="2" stroke-linecap="round" stroke-linejoin="round"/>
<path d="M102.316 19.7205V49.4807H50.8626L30.5511 34.6006L50.8626 19.7205H102.316Z" stroke="#FF9500" stroke-width="2" stroke-linecap="round" stroke-linejoin="round"/>
<path d="M140.561 79.241H102.316V49.4807H161.74L182.052 64.3608L178.452 66.9962" stroke="#FF9500" stroke-width="2" stroke-linecap="round" stroke-linejoin="round"/>
<path d="M161.387 134.359L132.944 84.9939C116.994 94.1962 104.587 108.479 97.7073 125.56C90.827 142.641 89.8699 161.535 94.9887 179.224" stroke="#FF9500" stroke-width="2" stroke-linecap="round" stroke-linejoin="round"/>
<path d="M169.55 129.538L140.399 78.9517C152.557 71.947 166.149 67.7999 180.147 66.8246C194.145 65.8492 208.181 68.0711 221.194 73.3221C234.206 78.573 245.853 86.7153 255.253 97.1328C264.654 107.55 271.561 119.97 275.452 133.451C279.343 146.932 280.117 161.122 277.713 174.947C275.31 188.771 269.794 201.868 261.581 213.245C253.368 224.622 242.675 233.982 230.311 240.616C217.946 247.25 204.234 250.984 190.213 251.535" stroke="#FF9500" stroke-width="2" stroke-linecap="round" stroke-linejoin="round"/>
<path d="M153.609 245.558C154.734 245.975 155.859 246.393 157.016 246.779" stroke="#FF9500" stroke-width="2" stroke-linecap="round" stroke-linejoin="round"/>
<path d="M111.058 193.076L102.22 198.248C101.256 196.674 100.806 195.87 100.806 195.87" stroke="#FF9500" stroke-width="2" stroke-linecap="round" stroke-linejoin="round"/>
<path d="M126.42 229.36C118.586 222.657 111.936 214.682 106.751 205.77L164.601 171.993" stroke="#FF9500" stroke-width="2" stroke-linecap="round" stroke-linejoin="round"/>
<path d="M212.808 105.498C210.302 106.752 207.013 108.342 205.127 109.451C204.644 109.735 204.231 109.969 203.97 110.158C199.009 113.766 200.08 111.474 201.142 109.548C201.622 108.678 203.598 106.662 204.42 105.113C204.654 104.482 204.665 103.79 204.452 103.152C201.439 103.707 198.382 103.987 195.318 103.988C193.232 104.16 191.134 104.106 189.06 103.827C183.478 103.071 183.985 101.682 189.156 101.031C192.747 100.569 196.274 99.6954 199.665 98.4277C203.38 96.9511 206.97 95.1777 210.4 93.1249C211.4 92.5191 212.547 92.1964 213.717 92.1912" stroke="#FF9500" stroke-width="2" stroke-linecap="round" stroke-linejoin="round"/>
<path d="M205.802 95.5994C207.056 91.8071 208.954 89.1853 210.72 88.9789C212.264 88.7979 213.228 90.4573 213.708 92.1606C214.615 96.6064 214.304 101.214 212.809 105.498C211.43 109.624 209.267 112.388 207.377 112.054C206.41 111.885 205.642 110.929 205.127 109.451" stroke="#FF9500" stroke-width="2" stroke-linecap="round" stroke-linejoin="round"/>
<path d="M185.491 102.927C185.491 104.111 185.142 104.595 184.334 103.216C182.864 100.704 179.899 102.959 182.438 106.205C182.871 106.901 183.09 107.708 183.067 108.527C183.045 109.346 182.782 110.141 182.311 110.811" stroke="#FF9500" stroke-width="2" stroke-linecap="round" stroke-linejoin="round"/>
<path d="M188.64 100.388C188.285 100.753 187.82 100.991 187.316 101.065C186.812 101.139 186.298 101.045 185.853 100.798C185.558 100.632 185.303 100.405 185.105 100.131C185.254 100.735 185.362 101.349 185.428 101.966" stroke="#FF9500" stroke-width="2" stroke-linecap="round" stroke-linejoin="round"/>
<path d="M194.393 94.4424C194.393 94.4745 194.393 94.4745 194.425 94.5067C194.843 95.985 195.229 97.367 195.582 98.6847" stroke="#FF9500" stroke-width="2" stroke-linecap="round" stroke-linejoin="round"/>
<path d="M191.115 116.907C191.115 116.907 189.605 116.329 188.512 115.879L191.308 120.218" stroke="#FF9500" stroke-width="2" stroke-linecap="round" stroke-linejoin="round"/>
<path d="M211.291 117.638L228.171 114.786L217.629 113.372" stroke="#FF9500" stroke-width="2" stroke-linecap="round" stroke-linejoin="round"/>
<path d="M204.453 103.152C205.192 103.023 206.027 102.766 206.959 102.573" stroke="#FF9500" stroke-width="2" stroke-linecap="round" stroke-linejoin="round"/>
<path d="M189.99 100.902L188.962 100.485C185.587 99.6168 185.917 98.6527 186.551 98.6239C187.837 98.5596 191.597 98.8167 195.516 98.6882L199.63 98.3989" stroke="#FF9500" stroke-width="2" stroke-linecap="round" stroke-linejoin="round"/>
<path d="M222.225 90.8379C223.47 94.6249 223.807 98.6513 223.209 102.593C222.612 106.534 221.097 110.28 218.786 113.528" stroke="#FF9500" stroke-width="2" stroke-linecap="round" stroke-linejoin="round"/>
<path d="M182.547 111.643C170.754 115.334 166.893 112.139 173.227 106.088C178.341 101.207 188.167 96.2169 194.828 94.3055C199.52 92.8609 204.977 92.142 206.364 94.0771" stroke="#FF9500" stroke-width="2" stroke-linecap="round" stroke-linejoin="round"/>
<path d="M198.828 103.827C198.25 104.213 197.644 104.598 197.029 104.984" stroke="#FF9500" stroke-width="2" stroke-linecap="round" stroke-linejoin="round"/>
<path d="M177.295 102.831C176.945 101.153 177.02 99.4146 177.514 97.7736C178.008 96.1325 178.904 94.6411 180.122 93.4354C181.34 92.2297 182.84 91.348 184.486 90.8707C186.132 90.3933 187.871 90.3356 189.545 90.7027C191.786 91.1932 193.798 92.4192 195.261 94.1855" stroke="#FF9500" stroke-width="2" stroke-linecap="round" stroke-linejoin="round"/>
<path d="M180.798 124.203V133.78L189.958 126.388L198.828 132.077L195.614 123.078" stroke="#FF9500" stroke-width="2" stroke-linecap="round" stroke-linejoin="round"/>
<path d="M195.614 123.078C195.784 123.049 206.398 120.106 208.678 119.086C211.787 117.386 214.778 115.477 217.629 113.372L207.088 111.99" stroke="#FF9500" stroke-width="2" stroke-linecap="round" stroke-linejoin="round"/>
<path d="M187.355 198.346L155.827 252.692" stroke="#FF9500" stroke-width="2" stroke-linecap="round" stroke-linejoin="round"/>
<path d="M167.782 310.863L166.465 315.62" stroke="#FF9500" stroke-width="2" stroke-linecap="round" stroke-linejoin="round"/>
<path d="M146.443 315.62L148.144 307.915" stroke="#FF9500" stroke-width="2" stroke-linecap="round" stroke-linejoin="round"/>
<path d="M186.577 330.693C170.604 330.677 159.548 330.523 146.693 330.5C146.32 330.502 145.95 330.427 145.608 330.28C145.265 330.133 144.956 329.917 144.7 329.646C144.445 329.374 144.248 329.053 144.121 328.702C143.994 328.352 143.939 327.979 143.961 327.607C144.245 323.519 145.077 319.486 146.436 315.62C152.99 317.484 159.935 317.484 166.49 315.62C173.818 317.741 181.969 323.57 187.476 328.218C187.693 328.405 187.847 328.653 187.919 328.929C187.992 329.205 187.979 329.497 187.882 329.766C187.784 330.034 187.606 330.266 187.373 330.432C187.14 330.597 186.862 330.688 186.577 330.693Z" stroke="#FF9500" stroke-width="2" stroke-linecap="round" stroke-linejoin="round"/>
<path d="M104.598 301.704C103.428 303.184 102.438 304.798 101.648 306.511C99.6037 310.905 98.6531 315.728 98.8775 320.569C102.599 324.072 104.47 323.976 107.041 330.692H94.1531C92.4173 330.731 90.7066 330.274 89.221 329.375C87.7355 328.476 86.5367 327.173 85.765 325.618C83.8502 321.401 82.201 312.922 80.3978 307.91C78.9871 303.987 78.4695 298.776 82.0369 295.761L87.2264 290.029" stroke="#FF9500" stroke-width="2" stroke-linecap="round" stroke-linejoin="round"/>
<path d="M102.002 305.753C96.1846 304.5 87.7001 298.522 84.1649 293.38" stroke="#FF9500" stroke-width="2" stroke-linecap="round" stroke-linejoin="round"/>
<path d="M98.8776 320.569C96.3403 318.833 87.7576 320.569 87.7576 320.569" stroke="#FF9500" stroke-width="2" stroke-linecap="round" stroke-linejoin="round"/>
<path d="M174.567 182.631C171.064 188.512 165.602 191.352 158.177 191.147" stroke="#FF9500" stroke-width="2" stroke-linecap="round" stroke-linejoin="round"/>
<path d="M133.908 228.91C137.476 233.345 145.411 238.969 151.135 240.287L166.561 219.494C159.556 216.929 153.419 212.438 148.856 206.537L133.908 228.91Z" stroke="#FF9500" stroke-width="2" stroke-linecap="round" stroke-linejoin="round"/>
<path d="M148.853 206.542L150.781 223.607L166.561 219.493" stroke="#FF9500" stroke-width="2" stroke-linecap="round" stroke-linejoin="round"/>
<path d="M187.676 252.207C188.649 252.279 189.614 251.996 190.394 251.411C191.174 250.826 191.715 249.979 191.919 249.025L196.804 224.568C196.883 224.166 196.872 223.751 196.774 223.353C196.675 222.955 196.49 222.583 196.232 222.264C195.974 221.946 195.649 221.687 195.28 221.508C194.911 221.328 194.507 221.232 194.097 221.226" stroke="#FF9500" stroke-width="2" stroke-linecap="round" stroke-linejoin="round"/>
<path d="M263.941 254.744C263.948 255.946 263.598 257.122 262.935 258.124C262.441 258.875 261.786 259.506 261.018 259.973C260.25 260.44 259.388 260.73 258.494 260.823C257.601 260.916 256.697 260.809 255.85 260.51C255.002 260.211 254.232 259.728 253.594 259.095C252.739 258.25 252.154 257.171 251.913 255.993C251.671 254.816 251.785 253.593 252.239 252.481C252.693 251.368 253.467 250.415 254.463 249.742C255.459 249.069 256.633 248.708 257.835 248.702C258.633 248.697 259.424 248.849 260.163 249.15C260.902 249.45 261.575 249.894 262.142 250.456C262.709 251.017 263.16 251.685 263.469 252.421C263.778 253.157 263.938 253.946 263.941 254.744Z" stroke="#F6EADA" stroke-width="2" stroke-linecap="round" stroke-linejoin="round"/>
<path d="M60.9219 31.7081L66.3533 39.3249L72.6846 28.2693" stroke="#FF9500" stroke-width="2" stroke-linecap="round" stroke-linejoin="round"/>
<path d="M253.014 47.2311L246.136 46.2348L243.051 39.9678L239.966 46.2348L233.056 47.2311L238.037 52.1161L236.88 58.9616L243.051 55.7156L249.222 58.9616L248.032 52.1161L253.014 47.2311Z" stroke="#F6EADA" stroke-width="2" stroke-linecap="round" stroke-linejoin="round"/>
<path d="M63.0279 139.404V149.207" stroke="#F6EADA" stroke-width="2" stroke-linecap="round" stroke-linejoin="round"/>
<path d="M67.9281 144.306H58.1259" stroke="#F6EADA" stroke-width="2" stroke-linecap="round" stroke-linejoin="round"/>
<path d="M109.13 191.083C105.541 193.496 101.719 195.541 97.7206 197.189" stroke="#FF9500" stroke-width="2" stroke-linecap="round" stroke-linejoin="round"/>
<path d="M71.5598 189.765L70.4992 185.202L75.0629 184.141L76.1234 188.705L71.5598 189.765Z" stroke="#FF9500" stroke-width="2" stroke-linecap="round" stroke-linejoin="round"/>
<path d="M62.3682 190.89L61.9182 186.23L66.5462 185.78L67.0282 190.44L62.3682 190.89Z" stroke="#FF9500" stroke-width="2" stroke-linecap="round" stroke-linejoin="round"/>
<path d="M53.2408 191.147V186.487H57.9331V191.147H53.2408Z" stroke="#FF9500" stroke-width="2" stroke-linecap="round" stroke-linejoin="round"/>
<path d="M96.5635 195.261L105.144 210.173L56.7439 238.134L43.9528 215.862" stroke="#FF9500" stroke-width="2" stroke-linecap="round" stroke-linejoin="round"/>
<path d="M87.5647 185.555L83.4189 187.837L90.1037 199.15L96.5635 195.261L90.8107 185.266" stroke="#FF9500" stroke-width="2" stroke-linecap="round" stroke-linejoin="round"/>
<path d="M83.4189 183.241L80.7125 178.485C65.3382 183.771 48.779 184.582 32.9614 180.826C33.0393 192.561 34.8811 204.219 38.425 215.407C58.381 217.643 78.5742 214.595 96.9813 206.569L92.032 197.988" stroke="#FF9500" stroke-width="2" stroke-linecap="round" stroke-linejoin="round"/>
<path d="M59.54 182.888L82.0369 169.968L88.5932 181.377" stroke="#FF9500" stroke-width="2" stroke-linecap="round" stroke-linejoin="round"/>
<path d="M309.379 169.323C309.51 170.055 309.42 170.808 309.12 171.488C308.821 172.167 308.326 172.742 307.698 173.139C307.072 173.537 306.342 173.741 305.6 173.724C304.858 173.708 304.138 173.472 303.53 173.046C303.075 172.728 302.697 172.313 302.422 171.83C302.147 171.348 301.983 170.811 301.942 170.257C301.9 169.703 301.982 169.147 302.181 168.629C302.381 168.111 302.693 167.644 303.095 167.262C303.586 166.792 304.195 166.464 304.857 166.314C305.52 166.164 306.211 166.196 306.856 166.408C307.501 166.62 308.077 167.003 308.521 167.516C308.966 168.03 309.262 168.654 309.379 169.323Z" stroke="#F6EADA" stroke-width="2" stroke-linecap="round" stroke-linejoin="round"/>
<path d="M102.123 186.262C100.034 186.905 94.2496 188.544 91.7749 185.137C91.7749 185.137 84.8398 186.294 82.8725 184.72C80.9053 183.145 88.4985 181.543 91.33 180.574C94.6114 179.407 97.8489 178.121 101.036 176.717" stroke="#FF9500" stroke-width="2" stroke-linecap="round" stroke-linejoin="round"/>
<path d="M206.316 147.728C206.252 146.579 206.083 145.439 205.809 144.322L215.129 142.715" stroke="#FF9500" stroke-width="2" stroke-linecap="round" stroke-linejoin="round"/>
<path d="M164.756 174.146C155.276 180.606 148.662 191.343 144.12 201.978C142.324 206.19 135.155 216.89 126.412 229.36C118.731 240.319 109.835 252.63 102.308 263.105C92.5412 276.703 85.0816 287.209 85.5959 287.632C88.0379 291.748 91.4073 295.237 95.4357 297.822C99.4642 300.406 104.04 302.014 108.8 302.517C122.137 286.127 169.863 226.349 187.346 198.389" stroke="#FF9500" stroke-width="2" stroke-linecap="round" stroke-linejoin="round"/>
<path d="M177.649 215.058L155.827 310.124" stroke="#FF9500" stroke-width="2" stroke-linecap="round" stroke-linejoin="round"/>
<path d="M201.913 175.528C195.807 216.376 185.426 269.726 171.96 310.478C162.826 311.856 153.489 310.503 145.125 306.587C149.907 281.167 150.686 278.891 158.488 239.096" stroke="#FF9500" stroke-width="2" stroke-linecap="round" stroke-linejoin="round"/>
<path d="M211.42 89.0229L241.19 93.6712C252.471 95.4067 255.46 106.971 246.718 116.65C236.826 127.603 219.334 141.297 206.32 147.728C206.802 157.723 204.135 166.626 201.922 175.56L164.756 174.146C164.249 167.103 164.406 169.181 164.08 164.922L112.964 194.865C106.572 189.092 102.048 181.542 99.972 173.182C99.972 173.182 153.127 139.436 163.155 133.295C168.765 129.763 174.668 126.72 180.799 124.199" stroke="#FF9500" stroke-width="2" stroke-linecap="round" stroke-linejoin="round"/>
<path d="M136.865 232.027L91.7427 294.987" stroke="#FF9500" stroke-width="2" stroke-linecap="round" stroke-linejoin="round"/>
<path d="M167.847 189.155L152.356 210.398" stroke="#FF9500" stroke-width="2" stroke-linecap="round" stroke-linejoin="round"/>
<path d="M108.808 167.59C110.842 176.122 115.535 183.786 122.21 189.476" stroke="#FF9500" stroke-width="2" stroke-linecap="round" stroke-linejoin="round"/>
<path d="M178.359 102.096C179.682 104.37 180.82 106.746 181.764 109.201C183.276 112.756 183.678 116.685 182.92 120.473C182.671 121.916 181.933 123.23 180.831 124.194C185.941 127.794 191.468 127.376 195.614 123.069C193.107 123.423 191.668 123.1 191.308 120.209C191.174 119.111 191.11 118.005 191.115 116.899C191.962 117.139 192.837 117.269 193.718 117.284C197.671 117.284 198.764 113.813 197.028 104.975L196.808 103.879" stroke="#FF9500" stroke-width="2" stroke-linecap="round" stroke-linejoin="round"/>
<path d="M164.087 164.922L167.847 162.705L164.344 168.297" stroke="#FF9500" stroke-width="2" stroke-linecap="round" stroke-linejoin="round"/>
<path d="M143.129 57.057C143.009 56.9449 142.85 56.8839 142.685 56.8868C142.521 56.8897 142.364 56.9563 142.248 57.0725C142.132 57.1887 142.065 57.3455 142.062 57.5098C142.059 57.6742 142.12 57.8332 142.232 57.9535L143.129 57.057ZM154.58 70.3014C154.638 70.3637 154.708 70.4137 154.786 70.4484C154.864 70.4831 154.948 70.5017 155.033 70.5032C155.118 70.5047 155.203 70.489 155.282 70.4571C155.361 70.4252 155.433 70.3777 155.493 70.3175C155.553 70.2573 155.601 70.1855 155.633 70.1065C155.664 70.0276 155.68 69.943 155.679 69.8578C155.677 69.7726 155.658 69.6886 155.624 69.6108C155.589 69.533 155.539 69.463 155.477 69.4049L154.58 70.3014ZM142.232 57.9535L154.58 70.3014L155.477 69.4049L143.129 57.057L142.232 57.9535Z" fill="#FF9500"/>
<path d="M155.477 57.9535C155.589 57.8332 155.65 57.6742 155.647 57.5098C155.644 57.3455 155.577 57.1887 155.461 57.0725C155.345 56.9563 155.188 56.8897 155.024 56.8868C154.86 56.8839 154.701 56.9449 154.58 57.057L155.477 57.9535ZM142.232 69.4049C142.12 69.5252 142.059 69.6842 142.062 69.8485C142.065 70.0129 142.132 70.1696 142.248 70.2859C142.364 70.4021 142.521 70.4687 142.685 70.4716C142.85 70.4745 143.009 70.4135 143.129 70.3014L142.232 69.4049ZM154.58 57.057L142.232 69.4049L143.129 70.3014L155.477 57.9535L154.58 57.057Z" fill="#FF9500"/>
</svg>
