<svg width="24" height="24" viewBox="0 0 24 24" fill="none" xmlns="http://www.w3.org/2000/svg">
<path d="M12.0206 2.91052C8.71058 2.91052 6.02058 5.60052 6.02058 8.91052V11.8005C6.02058 12.4105 5.76058 13.3405 5.45058 13.8605L4.30058 15.7705C3.59058 16.9505 4.08058 18.2605 5.38058 18.7005C9.69058 20.1405 14.3406 20.1405 18.6506 18.7005C19.8606 18.3005 20.3906 16.8705 19.7306 15.7705L18.5806 13.8605C18.2806 13.3405 18.0206 12.4105 18.0206 11.8005V8.91052C18.0206 5.61052 15.3206 2.91052 12.0206 2.91052Z" stroke="black" stroke-width="1.5" stroke-miterlimit="10" stroke-linecap="round"/>
<path d="M13.8699 3.1997C13.5599 3.1097 13.2399 3.0397 12.9099 2.9997C11.9499 2.8797 11.0299 2.9497 10.1699 3.1997C10.4599 2.4597 11.1799 1.9397 12.0199 1.9397C12.8599 1.9397 13.5799 2.4597 13.8699 3.1997Z" stroke="black" stroke-width="1.5" stroke-miterlimit="10" stroke-linecap="round" stroke-linejoin="round"/>
<path d="M15.0195 19.0603C15.0195 20.7103 13.6695 22.0603 12.0195 22.0603C11.1995 22.0603 10.4395 21.7203 9.89953 21.1803C9.35953 20.6403 9.01953 19.8803 9.01953 19.0603" stroke="black" stroke-width="1.5" stroke-miterlimit="10"/>
</svg>
