<svg width="25" height="24" viewBox="0 0 25 24" fill="none" xmlns="http://www.w3.org/2000/svg">
<path d="M5.56107 20.0451L6.00191 19.4383L5.56107 20.0451ZM4.45491 18.9389L5.06168 18.4981L4.45491 18.9389ZM20.5451 18.9389L19.9383 18.4981L20.5451 18.9389ZM19.4389 20.0451L18.9981 19.4383L19.4389 20.0451ZM19.4389 3.95491L18.9981 4.56168L19.4389 3.95491ZM20.5451 5.06107L19.9383 5.50191L20.5451 5.06107ZM5.56107 3.95491L6.00191 4.56168L5.56107 3.95491ZM4.45491 5.06107L5.06168 5.50191L4.45491 5.06107ZM9.5 11.25C9.08579 11.25 8.75 11.5858 8.75 12C8.75 12.4142 9.08579 12.75 9.5 12.75V11.25ZM15.5 12.75C15.9142 12.75 16.25 12.4142 16.25 12C16.25 11.5858 15.9142 11.25 15.5 11.25V12.75ZM11.75 15C11.75 15.4142 12.0858 15.75 12.5 15.75C12.9142 15.75 13.25 15.4142 13.25 15H11.75ZM13.25 9C13.25 8.58579 12.9142 8.25 12.5 8.25C12.0858 8.25 11.75 8.58579 11.75 9H13.25ZM12.5 20.25C10.6084 20.25 9.24999 20.249 8.19804 20.135C7.16013 20.0225 6.50992 19.8074 6.00191 19.4383L5.12023 20.6518C5.92656 21.2377 6.87094 21.5 8.03648 21.6263C9.18798 21.751 10.6418 21.75 12.5 21.75V20.25ZM2.75 12C2.75 13.8582 2.74897 15.312 2.87373 16.4635C3.00001 17.6291 3.26232 18.5734 3.84815 19.3798L5.06168 18.4981C4.69259 17.9901 4.47745 17.3399 4.365 16.302C4.25103 15.25 4.25 13.8916 4.25 12H2.75ZM6.00191 19.4383C5.64111 19.1762 5.32382 18.8589 5.06168 18.4981L3.84815 19.3798C4.20281 19.8679 4.63209 20.2972 5.12023 20.6518L6.00191 19.4383ZM20.75 12C20.75 13.8916 20.749 15.25 20.635 16.302C20.5225 17.3399 20.3074 17.9901 19.9383 18.4981L21.1518 19.3798C21.7377 18.5734 22 17.6291 22.1263 16.4635C22.251 15.312 22.25 13.8582 22.25 12H20.75ZM12.5 21.75C14.3582 21.75 15.812 21.751 16.9635 21.6263C18.1291 21.5 19.0734 21.2377 19.8798 20.6518L18.9981 19.4383C18.4901 19.8074 17.8399 20.0225 16.802 20.135C15.75 20.249 14.3916 20.25 12.5 20.25V21.75ZM19.9383 18.4981C19.6762 18.8589 19.3589 19.1762 18.9981 19.4383L19.8798 20.6518C20.3679 20.2972 20.7972 19.8679 21.1518 19.3798L19.9383 18.4981ZM12.5 3.75C14.3916 3.75 15.75 3.75103 16.802 3.865C17.8399 3.97745 18.4901 4.19259 18.9981 4.56168L19.8798 3.34815C19.0734 2.76232 18.1291 2.50001 16.9635 2.37373C15.812 2.24897 14.3582 2.25 12.5 2.25V3.75ZM22.25 12C22.25 10.1418 22.251 8.68798 22.1263 7.53648C22 6.37094 21.7377 5.42656 21.1518 4.62023L19.9383 5.50191C20.3074 6.00992 20.5225 6.66013 20.635 7.69804C20.749 8.74999 20.75 10.1084 20.75 12H22.25ZM18.9981 4.56168C19.3589 4.82382 19.6762 5.14111 19.9383 5.50191L21.1518 4.62023C20.7972 4.13209 20.3679 3.70281 19.8798 3.34815L18.9981 4.56168ZM12.5 2.25C10.6418 2.25 9.18798 2.24897 8.03648 2.37373C6.87094 2.50001 5.92656 2.76232 5.12023 3.34815L6.00191 4.56168C6.50992 4.19259 7.16013 3.97745 8.19804 3.865C9.24999 3.75103 10.6084 3.75 12.5 3.75V2.25ZM4.25 12C4.25 10.1084 4.25103 8.74999 4.365 7.69804C4.47745 6.66013 4.69259 6.00992 5.06168 5.50191L3.84815 4.62023C3.26232 5.42656 3.00001 6.37094 2.87373 7.53648C2.74897 8.68798 2.75 10.1418 2.75 12H4.25ZM5.12023 3.34815C4.63209 3.70281 4.20281 4.13209 3.84815 4.62023L5.06168 5.50191C5.32382 5.14111 5.64111 4.82382 6.00191 4.56168L5.12023 3.34815ZM9.5 12.75H15.5V11.25H9.5V12.75ZM13.25 15V9H11.75V15H13.25Z" fill="#B6B6B6"/>
</svg>
